<?xml version="1.0" encoding="UTF-8" standalone="no"?>
<!-- Created with Inkscape (http://www.inkscape.org/) -->

<svg
   xmlns:dc="http://purl.org/dc/elements/1.1/"
   xmlns:cc="http://creativecommons.org/ns#"
   xmlns:rdf="http://www.w3.org/1999/02/22-rdf-syntax-ns#"
   xmlns:svg="http://www.w3.org/2000/svg"
   xmlns="http://www.w3.org/2000/svg"
   xmlns:xlink="http://www.w3.org/1999/xlink"
   xmlns:sodipodi="http://sodipodi.sourceforge.net/DTD/sodipodi-0.dtd"
   xmlns:inkscape="http://www.inkscape.org/namespaces/inkscape"
   width="42"
   height="42"
   id="svg2"
   version="1.1"
   inkscape:version="0.48.3.1 r9886"
   sodipodi:docname="pyfield.svg"
   inkscape:export-filename="C:\Users\Windows\Github\pyarchinit_beta_test_dev\pyarchinit\icons\iconUT.png"
   inkscape:export-xdpi="300"
   inkscape:export-ydpi="300">
  <defs
     id="defs4">
    <inkscape:path-effect
       effect="spiro"
       id="path-effect4819"
       is_visible="true" />
    <marker
       inkscape:stockid="Arrow1Send"
       orient="auto"
       refY="0.0"
       refX="0.0"
       id="Arrow1Send"
       style="overflow:visible;">
      <path
         id="path4061"
         d="M 0.0,0.0 L 5.0,-5.0 L -12.5,0.0 L 5.0,5.0 L 0.0,0.0 z "
         style="fill-rule:evenodd;stroke:#000000;stroke-width:1.0pt;"
         transform="scale(0.2) rotate(180) translate(6,0)" />
    </marker>
    <marker
       inkscape:stockid="Arrow1Lend"
       orient="auto"
       refY="0.0"
       refX="0.0"
       id="Arrow1Lend"
       style="overflow:visible;">
      <path
         id="path4049"
         d="M 0.0,0.0 L 5.0,-5.0 L -12.5,0.0 L 5.0,5.0 L 0.0,0.0 z "
         style="fill-rule:evenodd;stroke:#000000;stroke-width:1.0pt;"
         transform="scale(0.8) rotate(180) translate(12.5,0)" />
    </marker>
    <linearGradient
       inkscape:collect="always"
       id="linearGradient3908">
      <stop
         style="stop-color:#473d36;stop-opacity:1;"
         offset="0"
         id="stop3910" />
      <stop
         style="stop-color:#756559;stop-opacity:1"
         offset="1"
         id="stop3912" />
    </linearGradient>
    <linearGradient
       inkscape:collect="always"
       id="linearGradient3865">
      <stop
         style="stop-color:#aa4400;stop-opacity:1;"
         offset="0"
         id="stop3867" />
      <stop
         style="stop-color:#aa4400;stop-opacity:0;"
         offset="1"
         id="stop3869" />
    </linearGradient>
    <linearGradient
       id="linearGradient3780">
      <stop
         style="stop-color:#000000;stop-opacity:0.44;"
         offset="0"
         id="stop3782" />
      <stop
         style="stop-color:#e6f2e6;stop-opacity:0;"
         offset="1"
         id="stop3784" />
    </linearGradient>
    <inkscape:perspective
       sodipodi:type="inkscape:persp3d"
       inkscape:vp_x="28.133867 : 29.798451 : 1"
       inkscape:vp_y="27.686631 : -917.60416 : 0"
       inkscape:vp_z="-14.815508 : 29.368463 : 1"
       inkscape:persp3d-origin="5.9811298 : 36.425031 : 1"
       id="perspective3029" />
    <linearGradient
       inkscape:collect="always"
       xlink:href="#linearGradient3902-1"
       id="linearGradient3908-0"
       x1="-995.70471"
       y1="-379.65338"
       x2="-982.95276"
       y2="-379.65479"
       gradientUnits="userSpaceOnUse"
       gradientTransform="matrix(1.0000954,0.00178371,-0.00108431,0.99994041,4.2881634e-6,1.0627147e-6)" />
    <linearGradient
       inkscape:collect="always"
       id="linearGradient3902-1">
      <stop
         style="stop-color:#000000;stop-opacity:1;"
         offset="0"
         id="stop3904-2" />
      <stop
         style="stop-color:#000000;stop-opacity:0;"
         offset="1"
         id="stop3906-4" />
    </linearGradient>
    <linearGradient
       inkscape:collect="always"
       xlink:href="#linearGradient3865"
       id="linearGradient3871"
       x1="-38.062012"
       y1="-0.17655392"
       x2="-48.574608"
       y2="-12.978826"
       gradientUnits="userSpaceOnUse"
       gradientTransform="matrix(1.401295,-0.37210108,0,1.3957277,-32.155657,1018.1152)" />
    <linearGradient
       inkscape:collect="always"
       xlink:href="#linearGradient3908"
       id="linearGradient3916"
       x1="20.815054"
       y1="38.739044"
       x2="41.988556"
       y2="19.897961"
       gradientUnits="userSpaceOnUse"
       gradientTransform="matrix(1.401295,-0.37210108,0,1.3957277,-32.155657,1018.1152)" />
    <linearGradient
       id="linearGradient3922">
      <stop
         style="stop-color:#000000;stop-opacity:0.98400003;"
         offset="0"
         id="stop3924" />
      <stop
         style="stop-color:#000000;stop-opacity:0.296;"
         offset="1"
         id="stop3926" />
    </linearGradient>
    <linearGradient
       inkscape:collect="always"
       xlink:href="#linearGradient3922"
       id="linearGradient5128"
       gradientUnits="userSpaceOnUse"
       gradientTransform="matrix(-1.6118104,1.0104536,0.56290063,1.4733586,66.086381,-70.047937)"
       x1="20.987825"
       y1="29.498655"
       x2="31.441071"
       y2="29.498655" />
  </defs>
  <sodipodi:namedview
     id="base"
     pagecolor="#ffffff"
     bordercolor="#666666"
     borderopacity="1.0"
     inkscape:pageopacity="0.0"
     inkscape:pageshadow="2"
     inkscape:zoom="4.0147763"
     inkscape:cx="-8.5471301"
     inkscape:cy="-9.4521203"
     inkscape:document-units="px"
     inkscape:current-layer="g5102"
     showgrid="false"
     inkscape:window-width="1366"
     inkscape:window-height="746"
     inkscape:window-x="-8"
     inkscape:window-y="-8"
     inkscape:window-maximized="1"
     showguides="true"
     inkscape:guide-bbox="true" />
  <metadata
     id="metadata7">
    <rdf:RDF>
      <cc:Work
         rdf:about="">
        <dc:format>image/svg+xml</dc:format>
        <dc:type
           rdf:resource="http://purl.org/dc/dcmitype/StillImage" />
        <dc:title></dc:title>
      </cc:Work>
    </rdf:RDF>
  </metadata>
  <g
     inkscape:label="Livello 1"
     inkscape:groupmode="layer"
     id="layer1"
     transform="translate(0,-1010.3622)">
    <g
       transform="matrix(0.49609037,0,0,0.49348793,0.14877676,504.81009)"
       style="fill:none"
       id="g4068">
      <rect
         style="fill:none;stroke:#000000;stroke-width:1.41474891;stroke-linecap:round;stroke-linejoin:round;stroke-miterlimit:4;stroke-opacity:1;stroke-dasharray:none;stroke-dashoffset:0"
         id="rect4070"
         width="19.333334"
         height="25.481485"
         x="1.6296297"
         y="1024.955"
         rx="6.9238029"
         ry="6.9603176" />
      <path
         style="fill:none;stroke:#000000;stroke-width:2.02107px;stroke-linecap:butt;stroke-linejoin:miter;stroke-opacity:1"
         d="m 4.2674603,1027.8907 c -0.370371,0.074 11.9259257,0.074 11.9259257,0.074"
         id="path4072"
         inkscape:connector-curvature="0" />
      <path
         inkscape:connector-curvature="0"
         id="path4074"
         d="m 4.2674603,1030.5104 c -0.370371,0.074 11.9259257,0.074 11.9259257,0.074"
         style="fill:none;stroke:#000000;stroke-width:2.02107px;stroke-linecap:butt;stroke-linejoin:miter;stroke-opacity:1" />
      <path
         style="fill:none;stroke:#000000;stroke-width:2.02107px;stroke-linecap:butt;stroke-linejoin:miter;stroke-opacity:1"
         d="m 4.2674603,1033.3993 c -0.370371,0.074 11.9259257,0.074 11.9259257,0.074"
         id="path4076"
         inkscape:connector-curvature="0" />
      <path
         inkscape:connector-curvature="0"
         id="path4078"
         d="m 4.2633843,1036.5844 c -0.186335,0.074 5.9999997,0.074 5.9999997,0.074"
         style="fill:none;stroke:#000000;stroke-width:2.02106977px;stroke-linecap:butt;stroke-linejoin:miter;stroke-opacity:1" />
      <path
         style="fill:none;stroke:#000000;stroke-width:2.02106977px;stroke-linecap:butt;stroke-linejoin:miter;stroke-opacity:1"
         d="m 4.2633843,1036.5844 c -0.186336,0.074 5.9999987,0.074 5.9999987,0.074"
         id="path4080"
         inkscape:connector-curvature="0" />
      <path
         style="fill:none;stroke:#000000;stroke-width:2.02107px;stroke-linecap:butt;stroke-linejoin:miter;stroke-opacity:1"
         d="m 7.2304233,1040.1975 c -0.370371,0.074 11.9259257,0.074 11.9259257,0.074"
         id="path4082"
         inkscape:connector-curvature="0" />
      <path
         inkscape:connector-curvature="0"
         id="path4084"
         d="m 7.2304233,1044.2882 c -0.370371,0.074 11.9259257,0.074 11.9259257,0.074"
         style="fill:none;stroke:#000000;stroke-width:2.02107px;stroke-linecap:butt;stroke-linejoin:miter;stroke-opacity:1" />
      <path
         style="fill:none;stroke:#000000;stroke-width:2.02106977px;stroke-linecap:butt;stroke-linejoin:miter;stroke-opacity:1"
         d="m 7.2263473,1047.4733 c -0.186335,0.074 5.9999997,0.074 5.9999997,0.074"
         id="path4086"
         inkscape:connector-curvature="0" />
      <path
         inkscape:connector-curvature="0"
         id="path4088"
         d="m 7.2263473,1047.4733 c -0.186336,0.074 5.9999987,0.074 5.9999987,0.074"
         style="fill:none;stroke:#000000;stroke-width:2.02106977px;stroke-linecap:butt;stroke-linejoin:miter;stroke-opacity:1" />
    </g>
    <g
       id="g4672"
       transform="matrix(0.62436956,0,0,0.63317607,-57.631261,383.5926)"
       style="fill:#000000;fill-opacity:1;stroke-width:0.95426315;stroke-miterlimit:4;stroke-dasharray:none">
      <g
         id="g4695"
         style="fill:#000000;fill-opacity:1;stroke-width:0.95426315;stroke-miterlimit:4;stroke-dasharray:none">
        <g
           id="g5102"
           transform="matrix(0.89204797,0,0,0.90575625,11.625744,97.520045)">
          <path
             transform="matrix(-0.54192748,0,0,0.67081157,152.9538,974.92545)"
             d="m 22.72531,33.050652 a 8.5471296,8.1449118 0 1 1 -17.0942589,0 8.5471296,8.1449118 0 1 1 17.0942589,0 z"
             sodipodi:ry="8.1449118"
             sodipodi:rx="8.5471296"
             sodipodi:cy="33.050652"
             sodipodi:cx="14.178181"
             id="path3082"
             style="fill:#000000;fill-opacity:1;stroke:#000000;stroke-width:1.76074922;stroke-linecap:round;stroke-linejoin:round;stroke-miterlimit:4;stroke-opacity:1;stroke-dasharray:none;stroke-dashoffset:0"
             sodipodi:type="arc" />
          <rect
             transform="matrix(-0.95470524,0.2975532,0.22272554,0.97488119,0,0)"
             style="fill:#000000;fill-opacity:1;stroke:#000000;stroke-width:1.06321609;stroke-linecap:round;stroke-linejoin:round;stroke-miterlimit:4;stroke-opacity:1;stroke-dasharray:none;stroke-dashoffset:0"
             id="rect4679"
             width="12.60103"
             height="23.991184"
             x="70.854057"
             y="1004.0787"
             rx="7.9291792"
             ry="8.3197489" />
          <rect
             transform="matrix(0.64674744,0.76270424,-0.64019431,0.76821302,0,0)"
             ry="7.6773157"
             rx="1.8115435"
             y="539.71515"
             x="772.62787"
             height="17.797174"
             width="5.0080299"
             id="rect4683"
             style="fill:#666666;fill-opacity:1;stroke:#000000;stroke-width:1.06960666;stroke-linecap:round;stroke-linejoin:round;stroke-miterlimit:4;stroke-opacity:1;stroke-dasharray:none;stroke-dashoffset:0" />
          <rect
             inkscape:transform-center-y="2.9798635"
             transform="matrix(-0.89563318,-0.44479344,-0.34178495,0.93977819,0,0)"
             ry="7.7487216"
             rx="1.8322088"
             y="856.17603"
             x="-498.37793"
             height="15.916365"
             width="4.7391663"
             id="rect4685"
             style="fill:#000000;fill-opacity:1;stroke:#000000;stroke-width:1.06496751;stroke-linecap:round;stroke-linejoin:round;stroke-miterlimit:4;stroke-opacity:1;stroke-dasharray:none;stroke-dashoffset:0" />
          <rect
             style="fill:#000000;fill-opacity:1;stroke:#000000;stroke-width:1.06161833;stroke-linecap:round;stroke-linejoin:round;stroke-miterlimit:4;stroke-opacity:1;stroke-dasharray:none;stroke-dashoffset:0"
             id="rect4687"
             width="4.6123137"
             height="16.251415"
             x="153.95781"
             y="1024.3126"
             rx="1.8528403"
             ry="7.8240037"
             transform="matrix(0.99999811,-0.00194431,0.00212298,0.99999775,0,0)" />
          <rect
             style="fill:#000000;fill-opacity:1;stroke:#000000;stroke-width:1.07549751;stroke-linecap:round;stroke-linejoin:round;stroke-miterlimit:4;stroke-opacity:1;stroke-dasharray:none;stroke-dashoffset:0"
             id="rect4689"
             width="3.9200494"
             height="12.41769"
             x="94.824043"
             y="1023.0839"
             rx="1.8097014"
             ry="7.7306609"
             transform="matrix(-0.89723602,0.44155127,0.2283417,0.97358105,0,0)" />
          <rect
             transform="matrix(0.99999883,-0.0015278,0.00270175,0.99999635,0,0)"
             ry="7.823977"
             rx="1.8528395"
             y="1040.3403"
             x="153.44769"
             height="12.770025"
             width="4.6123114"
             id="rect4691"
             style="fill:#000000;fill-opacity:1;stroke:#000000;stroke-width:1.06161857;stroke-linecap:round;stroke-linejoin:round;stroke-miterlimit:4;stroke-opacity:1;stroke-dasharray:none;stroke-dashoffset:0" />
          <rect
             style="fill:#666666;fill-opacity:1;stroke:#000000;stroke-width:1.12333143;stroke-linecap:round;stroke-linejoin:round;stroke-miterlimit:4;stroke-opacity:1;stroke-dasharray:none;stroke-dashoffset:0"
             id="rect4815"
             width="5.0859241"
             height="12.072162"
             x="983.51733"
             y="84.195732"
             rx="1.7723026"
             ry="7.0284204"
             transform="matrix(0.21673433,0.97623062,-0.77443243,0.63265663,0,0)" />
          <path
             inkscape:connector-curvature="0"
             inkscape:original-d="m 166.91032,1053.9213 c -2.68102,0.096 -5.38301,-0.1953 -8.05873,0 -0.46058,0.033 -0.88519,0.3254 -1.34311,0.3923 -0.44425,0.066 -0.89542,0 -1.34312,0 -0.78349,0 -1.57086,-0.091 -2.35046,0 -0.0933,0.012 -1.3227,0.6001 -1.6789,0.3922 -0.14156,-0.083 -0.1942,-0.3096 -0.33578,-0.3922 -0.10007,-0.058 -0.23567,0.058 -0.33578,0 -0.14157,-0.083 -0.1942,-0.3095 -0.33578,-0.3923 -0.10008,-0.058 -0.23567,0.058 -0.33578,0 -0.14157,-0.083 -0.1942,-0.3094 -0.33578,-0.3921 -0.18215,-0.1062 -1.25124,0.1074 -1.34312,0 -0.0791,-0.093 0.10008,-0.3338 0,-0.3922 -0.20022,-0.1173 -0.4477,0 -0.67155,0 -0.55963,0 -1.11927,0 -1.67891,0 -0.11193,0 -0.23567,0.058 -0.33578,0 -0.14156,-0.083 -0.1942,-0.3095 -0.33578,-0.3922 -0.21103,-0.1234 -1.13207,0.1235 -1.34311,0 -0.14158,-0.083 -0.1942,-0.3095 -0.33578,-0.3921 -0.20008,-0.1173 -1.36692,0.091 -1.6789,0 -1.4847,-0.4335 -0.53602,-0.3923 -1.34312,-0.3923 -0.24649,0 -1.89762,0.068 -2.01468,0 -0.14157,-0.083 -0.1942,-0.3094 -0.33578,-0.3922 -0.12144,-0.07 -1.44536,0 -1.6789,0 -0.89541,0 -1.79082,0 -2.68623,0 -0.55964,0 -1.1227,-0.072 -1.67891,0 -0.45865,0.059 -0.88392,0.3386 -1.34311,0.3922 -0.66824,0.078 -1.35911,-0.1702 -2.01468,0 -0.77349,0.6023 -1.08789,0.9962 -2.01468,1.1766 -0.33121,0.064 -0.67613,-0.064 -1.00734,0 -0.34913,0.068 -0.66397,0.2919 -1.00734,0.3922 -0.10857,0.032 -0.22959,-0.042 -0.33578,0 -0.23743,0.093 -0.43413,0.2998 -0.67156,0.3921 -0.31824,0.124 -1.36067,-0.1238 -1.67889,0 -0.47487,0.185 -0.85752,0.6426 -1.34313,0.7845 -0.21716,0.063 -0.44771,0 -0.67156,0 -0.78348,0 -1.56697,0 -2.35045,0 -0.11194,0 -0.22386,0 -0.33578,0 -0.11194,0 -0.23567,-0.058 -0.33578,0 -0.14157,0.083 -0.18561,0.3336 -0.33578,0.3922 -0.21238,0.083 -0.45206,-0.052 -0.67156,0 -0.34707,0.081 -0.65556,0.3464 -1.00735,0.3921 -5.11865,0.6643 1.61001,-0.9899 -4.70091,0.3922 -7.12336,1.56 1.71183,0.1422 -5.37247,1.1766 -0.89542,0.1308 -1.78698,0.3046 -2.68625,0.3922 -0.44615,0.043 -0.89887,-0.065 -1.34311,0 -0.45793,0.067 -0.88791,0.3036 -1.34312,0.3921 -0.22081,0.043 -0.45439,-0.063 -0.67156,0 -0.2428,0.072 -0.43413,0.2998 -0.67156,0.3922 -0.16142,0.063 -2.301092,0 -2.350453,0 -0.231043,0 -1.819168,0.076 -2.014684,0 -0.237433,-0.093 -0.428758,-0.3213 -0.671561,-0.3922 -0.217168,-0.063 -0.4477,0 -0.671561,0 -0.11192,0 -0.235661,0.058 -0.33577,0 -0.141578,-0.083 -0.194202,-0.3094 -0.335781,-0.3921 -0.08684,-0.051 -1.776676,0 -2.014683,0"
             inkscape:path-effect="#path-effect4819"
             id="path4817"
             d="m 166.91032,1053.9213 c -2.59615,-0.8492 -5.46258,-0.8492 -8.05873,0 -0.44379,0.1452 -0.88261,0.3151 -1.34311,0.3923 -0.44323,0.074 -0.89784,0.061 -1.34312,0 -0.39501,-0.054 -0.78513,-0.145 -1.18253,-0.1769 -0.3974,-0.032 -0.81108,-9e-4 -1.16793,0.1769 -0.28345,0.1412 -0.51829,0.3683 -0.80584,0.501 -0.14377,0.066 -0.30199,0.1081 -0.45991,0.097 -0.15792,-0.012 -0.31535,-0.081 -0.41315,-0.2054 -0.0547,-0.07 -0.0889,-0.153 -0.13598,-0.228 -0.0235,-0.037 -0.0506,-0.073 -0.0837,-0.1026 -0.0332,-0.029 -0.0728,-0.052 -0.11609,-0.062 -0.0552,-0.012 -0.11247,-0 -0.16838,0.01 -0.0559,0.01 -0.11475,0.014 -0.1674,-0.01 -0.0411,-0.016 -0.0751,-0.047 -0.10147,-0.082 -0.0264,-0.035 -0.046,-0.075 -0.0656,-0.1148 -0.0196,-0.04 -0.0394,-0.079 -0.0661,-0.1144 -0.0268,-0.035 -0.0612,-0.066 -0.1026,-0.081 -0.053,-0.019 -0.11175,-0.012 -0.1676,-0 -0.0558,0.01 -0.11362,0.018 -0.16818,0 -0.0425,-0.012 -0.0801,-0.037 -0.1106,-0.069 -0.0306,-0.032 -0.0545,-0.069 -0.0763,-0.1073 -0.0435,-0.076 -0.0809,-0.16 -0.1489,-0.2158 -0.0493,-0.04 -0.11188,-0.063 -0.17533,-0.069 -0.0635,-0.01 -0.12782,0 -0.18886,0.021 -0.12207,0.037 -0.22994,0.1089 -0.34204,0.1697 -0.1121,0.061 -0.23587,0.1123 -0.36303,0.1025 -0.0636,-0 -0.12666,-0.026 -0.1772,-0.065 -0.0505,-0.039 -0.0877,-0.096 -0.0967,-0.1596 -0.009,-0.066 0.0116,-0.1327 0.0244,-0.1985 0.006,-0.033 0.0107,-0.066 0.008,-0.1 -0.003,-0.034 -0.0125,-0.067 -0.0325,-0.094 -0.0174,-0.023 -0.0418,-0.041 -0.0686,-0.053 -0.0268,-0.011 -0.0559,-0.017 -0.0851,-0.018 -0.0582,-0 -0.11589,0.011 -0.17248,0.025 -0.11317,0.028 -0.22883,0.046 -0.34542,0.046 l -1.67891,0 c -0.0562,0 -0.11235,0 -0.16837,0.01 -0.056,0 -0.11366,0.01 -0.16741,-0.01 -0.042,-0.013 -0.0793,-0.038 -0.11022,-0.07 -0.0309,-0.031 -0.056,-0.068 -0.0786,-0.1052 -0.0453,-0.075 -0.0831,-0.1571 -0.14695,-0.2174 -0.0426,-0.04 -0.0953,-0.069 -0.15113,-0.086 -0.0559,-0.017 -0.11487,-0.024 -0.17337,-0.022 -0.117,0 -0.2306,0.038 -0.34154,0.076 -0.11095,0.037 -0.222,0.078 -0.33809,0.092 -0.11609,0.015 -0.23978,0 -0.33898,-0.06 -0.0733,-0.046 -0.12848,-0.1155 -0.17817,-0.1863 -0.0497,-0.071 -0.096,-0.145 -0.15761,-0.2058 -0.10359,-0.1021 -0.24534,-0.1599 -0.38943,-0.1799 -0.14408,-0.02 -0.29104,-0 -0.43367,0.024 -0.28526,0.057 -0.56509,0.1676 -0.8558,0.1559 -0.23416,-0.01 -0.45711,-0.098 -0.67356,-0.1876 -0.21645,-0.09 -0.43617,-0.1835 -0.66956,-0.2047 -0.34709,-0.031 -0.68527,0.099 -1.02621,0.1717 -0.17047,0.036 -0.34608,0.058 -0.51908,0.037 -0.17299,-0.021 -0.34419,-0.087 -0.46939,-0.2085 -0.062,-0.06 -0.11126,-0.1317 -0.16221,-0.2014 -0.0509,-0.07 -0.10483,-0.1386 -0.17357,-0.1908 -0.11369,-0.086 -0.25996,-0.1201 -0.40265,-0.1239 -0.14268,-0 -0.28456,0.02 -0.42518,0.044 -0.28124,0.049 -0.56559,0.08 -0.85107,0.08 l -2.68623,0 c -0.56016,0 -1.12416,-0.078 -1.67891,0 -0.46252,0.065 -0.89244,0.2697 -1.34311,0.3922 -0.65571,0.1782 -1.35897,0.1782 -2.01468,0 -0.1943,0.3598 -0.48913,0.6647 -0.84227,0.871 -0.35313,0.2062 -0.76353,0.3132 -1.17241,0.3056 -0.16867,-0 -0.33638,-0.025 -0.50476,-0.035 -0.16839,-0.01 -0.3397,-0.01 -0.50258,0.035 -0.17515,0.047 -0.33343,0.1409 -0.4943,0.2247 -0.16086,0.084 -0.33178,0.1601 -0.51304,0.1675 -0.11201,0 -0.22505,-0.017 -0.33578,0 -0.12914,0.02 -0.24389,0.093 -0.34866,0.1708 -0.10478,0.078 -0.20504,0.1647 -0.3229,0.2213 -0.12791,0.061 -0.2716,0.085 -0.41348,0.085 -0.14188,3e-4 -0.28284,-0.022 -0.42251,-0.046 -0.27935,-0.05 -0.56892,-0.1124 -0.8429,-0.039 -0.25294,0.068 -0.46024,0.2442 -0.66288,0.4103 -0.10132,0.083 -0.20408,0.165 -0.31629,0.2326 -0.1122,0.067 -0.23466,0.1207 -0.36396,0.1416 -0.11062,0.018 -0.22354,0.013 -0.3355,0.01 -0.11196,-0 -0.22399,-0.01 -0.33606,-0.01 l -2.35045,0 -0.33578,0 c -0.0562,0 -0.1124,-0 -0.16842,-0.01 -0.056,-0 -0.11384,-0.01 -0.16736,0.01 -0.0417,0.013 -0.0783,0.04 -0.10823,0.072 -0.0299,0.032 -0.0537,0.069 -0.0756,0.1073 -0.0438,0.076 -0.083,0.1584 -0.15193,0.2126 -0.0454,0.036 -0.10131,0.057 -0.15839,0.066 -0.0571,0.01 -0.11547,0.01 -0.17267,-0 -0.1144,-0.016 -0.22537,-0.054 -0.3405,-0.064 -0.18262,-0.016 -0.36482,0.04 -0.52988,0.1197 -0.16507,0.08 -0.3173,0.1833 -0.47747,0.2724 -0.69613,0.3873 -1.51677,0.4873 -2.31336,0.4825 -0.79659,-0 -1.59111,-0.1066 -2.38755,-0.09 -1.8384,0.038 -3.59717,0.6976 -5.37247,1.1766 -0.87721,0.2367 -1.77852,0.4316 -2.68625,0.3922 -0.44885,-0.02 -0.90414,-0.096 -1.34311,0 -0.22884,0.05 -0.44481,0.145 -0.66342,0.229 -0.21861,0.084 -0.44554,0.1583 -0.6797,0.1631 -0.11233,0 -0.22429,-0.011 -0.33641,-0.019 -0.112109,-0.01 -0.226141,-0.01 -0.33515,0.019 -0.126405,0.032 -0.240532,0.1 -0.347673,0.1738 -0.107142,0.074 -0.209821,0.1554 -0.323887,0.2184 -0.174378,0.096 -0.371446,0.147 -0.56976,0.1655 -0.198314,0.018 -0.398412,0.01 -0.595998,-0.02 -0.395171,-0.05 -0.786357,-0.1496 -1.184695,-0.146 -0.340661,0 -0.675688,0.081 -1.014213,0.1196 -0.338524,0.038 -0.695872,0.033 -1.000471,-0.1196 -0.116248,-0.058 -0.221219,-0.1362 -0.32853,-0.2096 -0.107311,-0.073 -0.219087,-0.1433 -0.343031,-0.1826 -0.215545,-0.068 -0.448777,-0.039 -0.671561,0 -0.05585,0.01 -0.111808,0.02 -0.168431,0.023 -0.05662,0 -0.114352,-0 -0.167339,-0.023 -0.08206,-0.031 -0.147135,-0.096 -0.198122,-0.1677 -0.05099,-0.071 -0.09025,-0.1505 -0.137659,-0.2244 -0.107755,-0.168 -0.258255,-0.3082 -0.433356,-0.4039 -0.1751,-0.096 -0.37444,-0.1466 -0.573985,-0.1466 -0.199546,0 -0.398886,0.051 -0.573986,0.1466 -0.175101,0.096 -0.325601,0.2359 -0.433356,0.4039"
             style="fill:none;stroke:#000000;stroke-width:1.76936388px;stroke-linecap:butt;stroke-linejoin:miter;stroke-opacity:1" />
          <path
             inkscape:connector-curvature="0"
             id="path4821"
             d="m 137.58155,1009.9122 5.0367,40.3953"
             style="fill:none;stroke:#000000;stroke-width:1.76936388px;stroke-linecap:butt;stroke-linejoin:miter;stroke-opacity:1" />
          <g
             style="stroke-width:1.41627288;stroke-miterlimit:4;stroke-dasharray:none"
             transform="matrix(-0.06426089,-0.69447743,-0.5947764,0.11521785,748.31739,1074.9232)"
             id="g5076">
            <path
               style="fill:none;stroke:#000000;stroke-width:1.09147382;stroke-linecap:butt;stroke-linejoin:miter;stroke-miterlimit:4;stroke-opacity:1;stroke-dasharray:none"
               d="m 233.21187,1049.7803 c 0.40399,0.2329 -8.07866,-2.3479 -14.92075,-5.4746 -8.19687,-3.7454 -15.04667,-8.1774 -15.04667,-8.1774"
               id="path3802"
               inkscape:connector-curvature="0"
               sodipodi:nodetypes="csc" />
            <path
               sodipodi:nodetypes="cc"
               style="fill:none;stroke:#000000;stroke-width:1.09147382;stroke-linecap:butt;stroke-linejoin:miter;stroke-miterlimit:4;stroke-opacity:1;stroke-dasharray:none"
               d="m 231.12465,1033.4781 c -8.03282,0.8906 -12.0965,-2.9748 -13.35701,-5.9454"
               id="path3800"
               inkscape:connector-curvature="0" />
            <path
               inkscape:connector-curvature="0"
               id="path3808"
               d="m 238.07283,1024.8254 c -4.57729,-6.6228 -15.88199,-9.0165 -16.77048,-8.9821"
               style="fill:none;stroke:#000000;stroke-width:1.09147382;stroke-linecap:butt;stroke-linejoin:miter;stroke-miterlimit:4;stroke-opacity:1;stroke-dasharray:none"
               sodipodi:nodetypes="cc" />
            <g
               style="stroke-width:0.72225845;stroke-miterlimit:4;stroke-dasharray:none"
               transform="matrix(-1.5928322,-0.81121322,-1.0209117,1.8940672,1321.9377,-889.58464)"
               id="g4014">
              <g
                 style="stroke-width:0.72225845;stroke-miterlimit:4;stroke-dasharray:none"
                 id="g3836">
                <path
                   style="fill:none;stroke:#000000;stroke-width:0.5566203;stroke-linecap:square;stroke-linejoin:miter;stroke-miterlimit:4;stroke-opacity:1;stroke-dasharray:none;stroke-dashoffset:0.14187671"
                   d="m 36.000001,1021.6271 c -0.01341,1.7811 -1.373009,3.4258 -1.109826,5.2717 0.36698,2.5739 2.756957,5.0396 3.680455,7.6089 -0.839445,6.0081 -0.287616,-0.7575 -4.542214,10.2796 -0.645095,1.6735 -2.728607,4.4253 -4.465083,5.5432 -1.395417,0.032 -0.61002,0.8184 -1.959184,0.8074 -3.69933,-4.0593 -6.379123,-6.2795 -5.708903,-17.8092 0.908258,-2.3915 4.262512,-3.9818 4.879323,-6.4301 0.429908,-1.7064 -1.31562,-3.4442 -0.971099,-5.1626 4.250548,0.7565 4.714391,1.2856 10.196531,-0.1089 z"
                   id="rect3847"
                   inkscape:connector-curvature="0"
                   sodipodi:nodetypes="cacscccacc" />
                <path
                   sodipodi:nodetypes="ccsccacc"
                   inkscape:connector-curvature="0"
                   id="path3806"
                   d="m 36.000001,1021.6271 c -0.01341,1.7811 -1.489041,3.5157 -1.109826,5.2717 4.245522,5.7346 2.558796,13.2596 -1.254801,18.5239 -1.785953,2.4653 -2.123348,5.707 -6.031225,5.7152 -3.69933,-4.0593 -6.379123,-6.2795 -5.708903,-17.8092 0.908258,-2.3915 4.262512,-3.9818 4.879323,-6.4301 0.429908,-1.7064 -1.31562,-3.4442 -0.971099,-5.1626 4.250548,0.7565 4.714391,1.2856 10.196531,-0.1089 z"
                   style="fill:none;stroke:#000000;stroke-width:0.5566203;stroke-linecap:square;stroke-linejoin:miter;stroke-miterlimit:4;stroke-opacity:1;stroke-dasharray:none;stroke-dashoffset:0.14187671" />
                <path
                   style="fill:url(#linearGradient5128);fill-opacity:1;stroke:none"
                   d="m 22.612717,18.416185 c 1.304653,0.09272 2.583269,0.421529 3.884393,0.554913 1.474926,0.151202 4.93006,-0.278176 4.439306,0.277457 -4.503734,5.099139 -2.515191,15.713568 -0.83237,20.67052 0.235045,0.692353 -1.369321,0.861629 -2.080924,0.693642 -0.381886,-0.09015 -0.585247,-0.527584 -0.83237,-0.83237 -1.494417,-1.843125 -2.962894,-3.778716 -3.884394,-5.965318 -1.067436,-2.532889 -1.554649,-5.308902 -1.803468,-8.046243 -0.213656,-2.350504 0.231205,-4.715403 0.277457,-7.075144 0.0018,-0.09247 -0.0654,-0.21206 0,-0.277457 0.196191,-0.196191 0.555611,-0.01967 0.83237,0 z"
                   id="path3816"
                   inkscape:connector-curvature="0"
                   transform="matrix(1,0,0,0.78628901,0,1019.1814)"
                   sodipodi:nodetypes="aassaaaaaaa" />
              </g>
            </g>
            <path
               style="fill:none;stroke:#000000;stroke-width:1.09147382;stroke-miterlimit:4;stroke-opacity:1;stroke-dasharray:none"
               d="m 211.75024,1031.3168 c -4.32086,-2.7641 -5.56682,-8.4353 -2.78307,-12.6667 2.78383,-4.2315 8.54338,-5.4213 12.86429,-2.6574"
               id="path5085"
               inkscape:connector-curvature="0"
               sodipodi:nodetypes="csc" />
            <path
               sodipodi:nodetypes="csc"
               inkscape:connector-curvature="0"
               id="path5088"
               d="m 231.31079,1041.2358 c 4.80437,1.8303 9.3631,-0.6263 11.2063,-5.3312 1.84334,-4.7051 -0.55681,-10.0033 -5.36112,-11.8335"
               style="fill:none;stroke:#000000;stroke-width:1.09147382;stroke-miterlimit:4;stroke-opacity:1;stroke-dasharray:none"
               inkscape:transform-center-x="1.1622394"
               inkscape:transform-center-y="8.9224307" />
            <path
               sodipodi:nodetypes="csc"
               inkscape:connector-curvature="0"
               id="path5090"
               d="m 213.40766,1030.521 c -3.45671,-2.2202 -4.45353,-6.7752 -2.2265,-10.1739 2.22712,-3.3988 6.83485,-4.3544 10.29163,-2.1344"
               style="fill:none;stroke:#000000;stroke-width:1.09147382;stroke-miterlimit:4;stroke-opacity:1;stroke-dasharray:none" />
            <path
               style="fill:none;stroke:#000000;stroke-width:1.09147382;stroke-miterlimit:4;stroke-opacity:1;stroke-dasharray:none"
               d="m 230.83437,1039.2533 c 3.82501,1.476 8.18304,-0.2695 9.73384,-3.8983 1.5511,-3.6292 -0.29231,-7.7678 -4.11726,-9.2438"
               id="path5092"
               inkscape:connector-curvature="0"
               sodipodi:nodetypes="csc"
               inkscape:transform-center-x="1.0094119"
               inkscape:transform-center-y="6.8759053" />
          </g>
          <rect
             ry="6.6602178"
             rx="0"
             y="877.22729"
             x="263.04233"
             height="15.329124"
             width="5.6209731"
             id="rect5092"
             style="fill:#000000;fill-opacity:1;stroke:#000000;stroke-width:1.10622132;stroke-linecap:round;stroke-linejoin:round;stroke-miterlimit:4;stroke-opacity:1;stroke-dasharray:none;stroke-dashoffset:0"
             transform="matrix(-0.69557139,0.71845699,0.39069666,0.92051948,0,0)" />
        </g>
        <g
           id="g5098"
           transform="matrix(0.23010139,0,0,0.3340118,95.642025,680.53196)">
          <path
             sodipodi:nodetypes="caasc"
             inkscape:connector-curvature="0"
             id="path5094"
             d="m -8.6262221,1023.5636 c 0,0 23.4953791,-16.9103 36.3026451,-23.60287 5.847806,-3.0559 11.752301,-6.9712 18.350791,-7.4743 8.457176,-0.6448 17.23828,1.9848 24.733674,5.9007 2.309868,1.2068 4.387566,2.73347 6.332758,4.44437"
             style="fill:none;stroke:#000000;stroke-width:5.73688793px;stroke-linecap:butt;stroke-linejoin:miter;stroke-opacity:1" />
          <path
             style="fill:none;stroke:#000000;stroke-width:5.73688793px;stroke-linecap:butt;stroke-linejoin:miter;stroke-opacity:1"
             d="m 34.458241,1031.4312 c 0,0 23.495379,-16.9103 36.302645,-23.6029 5.847806,-3.0559 11.752301,-6.9712 18.350791,-7.4743 8.457176,-0.64477 17.238253,1.9848 24.733673,5.9007 10.31493,5.389 16.00004,17.1589 25.93046,23.2095 5.94518,3.6225 19.54758,7.4743 19.54758,7.4743"
             id="path5096"
             inkscape:connector-curvature="0"
             sodipodi:nodetypes="caaaac" />
        </g>
      </g>
    </g>
  </g>
</svg>
