<?xml version="1.0" encoding="UTF-8" standalone="no"?>
<!-- Created with Inkscape (http://www.inkscape.org/) -->

<svg
   xmlns:dc="http://purl.org/dc/elements/1.1/"
   xmlns:cc="http://creativecommons.org/ns#"
   xmlns:rdf="http://www.w3.org/1999/02/22-rdf-syntax-ns#"
   xmlns:svg="http://www.w3.org/2000/svg"
   xmlns="http://www.w3.org/2000/svg"
   xmlns:xlink="http://www.w3.org/1999/xlink"
   xmlns:sodipodi="http://sodipodi.sourceforge.net/DTD/sodipodi-0.dtd"
   xmlns:inkscape="http://www.inkscape.org/namespaces/inkscape"
   width="42"
   height="42"
   id="svg2"
   version="1.1"
   inkscape:version="0.48.3.1 r9886"
   sodipodi:docname="pyzoo.svg"
   inkscape:export-filename="C:\Users\Windows\Github\pyarchinit_beta_test_dev\pyarchinit\icons\iconMegacero.png"
   inkscape:export-xdpi="300"
   inkscape:export-ydpi="300">
  <defs
     id="defs4">
    <inkscape:path-effect
       is_visible="true"
       id="path-effect4813"
       effect="spiro" />
    <inkscape:path-effect
       is_visible="true"
       id="path-effect4811"
       effect="spiro" />
    <inkscape:path-effect
       effect="spiro"
       id="path-effect4805"
       is_visible="true" />
    <inkscape:path-effect
       effect="spiro"
       id="path-effect4801"
       is_visible="true" />
    <inkscape:path-effect
       effect="spiro"
       id="path-effect4797"
       is_visible="true" />
    <inkscape:path-effect
       effect="spiro"
       id="path-effect4772"
       is_visible="true" />
    <linearGradient
       id="linearGradient3780">
      <stop
         style="stop-color:#000000;stop-opacity:0.44;"
         offset="0"
         id="stop3782" />
      <stop
         style="stop-color:#e6f2e6;stop-opacity:0;"
         offset="1"
         id="stop3784" />
    </linearGradient>
    <inkscape:perspective
       sodipodi:type="inkscape:persp3d"
       inkscape:vp_x="28.133867 : 29.798451 : 1"
       inkscape:vp_y="27.686631 : -917.60416 : 0"
       inkscape:vp_z="-14.815508 : 29.368463 : 1"
       inkscape:persp3d-origin="5.9811298 : 36.425031 : 1"
       id="perspective3029" />
    <linearGradient
       inkscape:collect="always"
       xlink:href="#linearGradient3902-1"
       id="linearGradient3908-0"
       x1="-995.70471"
       y1="-379.65338"
       x2="-982.95276"
       y2="-379.65479"
       gradientUnits="userSpaceOnUse"
       gradientTransform="matrix(1.0000954,0.00178371,-0.00108431,0.99994041,4.2881634e-6,1.0627147e-6)" />
    <linearGradient
       inkscape:collect="always"
       id="linearGradient3902-1">
      <stop
         style="stop-color:#000000;stop-opacity:1;"
         offset="0"
         id="stop3904-2" />
      <stop
         style="stop-color:#000000;stop-opacity:0;"
         offset="1"
         id="stop3906-4" />
    </linearGradient>
  </defs>
  <sodipodi:namedview
     id="base"
     pagecolor="#ffffff"
     bordercolor="#666666"
     borderopacity="1.0"
     inkscape:pageopacity="0.0"
     inkscape:pageshadow="2"
     inkscape:zoom="3.375"
     inkscape:cx="21"
     inkscape:cy="18.037037"
     inkscape:document-units="px"
     inkscape:current-layer="layer1"
     showgrid="false"
     inkscape:window-width="1366"
     inkscape:window-height="746"
     inkscape:window-x="-8"
     inkscape:window-y="-8"
     inkscape:window-maximized="1"
     showguides="true"
     inkscape:guide-bbox="true" />
  <metadata
     id="metadata7">
    <rdf:RDF>
      <cc:Work
         rdf:about="">
        <dc:format>image/svg+xml</dc:format>
        <dc:type
           rdf:resource="http://purl.org/dc/dcmitype/StillImage" />
        <dc:title></dc:title>
      </cc:Work>
    </rdf:RDF>
  </metadata>
  <g
     inkscape:label="Livello 1"
     inkscape:groupmode="layer"
     id="layer1"
     transform="translate(0,-1010.3622)">
    <g
       id="g4774"
       transform="matrix(1.4903945,0,0,1.5840427,42.630335,-559.66587)">
      <g
         transform="matrix(1.1801057,0.39833948,-0.43663578,1.0766014,370.21339,-102.70815)"
         id="g3835">
        <g
           transform="matrix(1.1854287,-0.01941868,-0.01941868,1.1401302,16.620481,-142.63041)"
           id="g4090">
          <rect
             style="fill:none;stroke:#000000;stroke-width:0.28222114;stroke-linecap:round;stroke-linejoin:round;stroke-miterlimit:4;stroke-opacity:1;stroke-dasharray:none;stroke-dashoffset:0"
             id="rect3976"
             width="0.81699443"
             height="3.7248878"
             x="62.280991"
             y="1024.7064"
             transform="matrix(0.98562183,-0.16896627,-0.02569182,0.99966991,0,0)"
             rx="0.22435738"
             ry="0.70499295" />
          <path
             style="fill:none;stroke:#000000;stroke-width:0.23293401;stroke-linecap:butt;stroke-linejoin:miter;stroke-miterlimit:4;stroke-opacity:1;stroke-dasharray:none"
             d="m 35.195777,1014.2191 c 0.07816,0.6168 0.77295,1.0832 1.115953,1.3224 1.484724,1.0352 1.634181,0.6161 1.634181,0.6161"
             id="path4023"
             inkscape:connector-curvature="0"
             sodipodi:nodetypes="csc" />
          <path
             inkscape:connector-curvature="0"
             id="path4745"
             d="m 37.839341,1011.8775 c -1.730017,0.6401 -2.895286,1.7766 -2.609652,2.5486 0.262184,0.7087 1.657384,0.8455 3.223196,0.3699 0.0062,0.019 0.01332,0.036 0.02007,0.055 0.578391,1.5632 3.26109,2.0211 5.991599,1.0108 2.730505,-1.0102 4.469099,-3.104 3.890709,-4.6672 -0.578399,-1.5633 -3.254401,-2.003 -5.98491,-0.9927 -0.873561,0.3232 -1.640441,0.7593 -2.268407,1.2504 -0.643296,-0.023 -1.443045,0.123 -2.26261,0.4259 z"
             style="fill:#ffffff;fill-opacity:1;fill-rule:evenodd;stroke:#000000;stroke-width:0.18634725;stroke-linecap:round;stroke-linejoin:round;stroke-miterlimit:4;stroke-opacity:1;stroke-dasharray:none;stroke-dashoffset:0" />
          <path
             inkscape:transform-center-y="3.7110609"
             inkscape:transform-center-x="-1.0484556"
             transform="matrix(0.17749104,-0.56933398,0.698413,0.32351306,42.016426,1000.0031)"
             d="m -24.396787,1.4795948 c 0,2.4346537 -1.13554,4.4083305 -2.536299,4.4083305 -1.40076,0 -2.5363,-1.9736768 -2.5363,-4.4083305 0,-2.43465365 1.13554,-4.4083304 2.5363,-4.4083304 1.400759,0 2.536299,1.97367675 2.536299,4.4083304 z"
             sodipodi:ry="4.4083304"
             sodipodi:rx="2.5362995"
             sodipodi:cy="1.4795948"
             sodipodi:cx="-26.933086"
             id="path4749"
             style="fill:#adafad;fill-opacity:1;fill-rule:evenodd;stroke:#000000;stroke-width:0.27624404;stroke-linecap:round;stroke-linejoin:round;stroke-miterlimit:4;stroke-opacity:1;stroke-dasharray:none;stroke-dashoffset:0"
             sodipodi:type="arc" />
          <path
             sodipodi:type="arc"
             style="fill:#adafad;fill-opacity:1;fill-rule:evenodd;stroke:#000000;stroke-width:0.3738369;stroke-linecap:round;stroke-linejoin:round;stroke-miterlimit:4;stroke-opacity:1;stroke-dasharray:none;stroke-dashoffset:0"
             id="path4751"
             sodipodi:cx="-26.933086"
             sodipodi:cy="1.4795948"
             sodipodi:rx="2.5362995"
             sodipodi:ry="4.4083304"
             d="m -24.396787,1.4795948 c 0,2.4346537 -1.13554,4.4083305 -2.536299,4.4083305 -1.40076,0 -2.5363,-1.9736768 -2.5363,-4.4083305 0,-2.43465365 1.13554,-4.4083304 2.5363,-4.4083304 1.400759,0 2.536299,1.97367675 2.536299,4.4083304 z"
             transform="matrix(0.48358207,-4.7025656e-4,0.12876143,-0.51394547,52.477874,1019.9307)" />
          <path
             sodipodi:nodetypes="csc"
             inkscape:connector-curvature="0"
             id="path4031"
             d="m 45.728635,1012.3932 c 0.3785,0.5057 0.02804,1.3588 -0.138353,1.7865 -0.720386,1.8511 -1.180445,1.6575 -1.180445,1.6575"
             style="fill:none;stroke:#000000;stroke-width:0.23293401;stroke-linecap:butt;stroke-linejoin:miter;stroke-miterlimit:4;stroke-opacity:1;stroke-dasharray:none" />
          <path
             style="fill:none;stroke:#000000;stroke-width:0.23293401;stroke-linecap:butt;stroke-linejoin:miter;stroke-miterlimit:4;stroke-opacity:1;stroke-dasharray:none"
             d="m 47.746303,1010.6565 c 0.3785,0.5057 0.02804,1.3588 -0.138353,1.7865 -0.720386,1.8511 -1.180445,1.6575 -1.180445,1.6575"
             id="path4754"
             inkscape:connector-curvature="0"
             sodipodi:nodetypes="csc" />
          <path
             sodipodi:nodetypes="csc"
             inkscape:connector-curvature="0"
             id="path4756"
             d="m 44.144396,1012.2863 c 0.3785,0.5057 0.02804,1.3588 -0.138353,1.7865 -0.720386,1.8511 -1.180445,1.6575 -1.180445,1.6575"
             style="fill:none;stroke:#000000;stroke-width:0.23293401;stroke-linecap:butt;stroke-linejoin:miter;stroke-miterlimit:4;stroke-opacity:1;stroke-dasharray:none" />
          <path
             style="fill:none;stroke:#000000;stroke-width:0.23293401;stroke-linecap:butt;stroke-linejoin:miter;stroke-miterlimit:4;stroke-opacity:1;stroke-dasharray:none"
             d="m 42.128464,1012.6361 c 0.3785,0.5057 0.02804,1.3588 -0.138353,1.7865 -0.720386,1.8511 -1.180445,1.6575 -1.180445,1.6575"
             id="path4758"
             inkscape:connector-curvature="0"
             sodipodi:nodetypes="csc" />
          <path
             transform="matrix(0.44346308,0.2356509,0.13102104,-0.11784728,51.821076,1028.8137)"
             d="m -24.396787,1.4795948 c 0,2.4346537 -1.13554,4.4083305 -2.536299,4.4083305 -1.40076,0 -2.5363,-1.9736768 -2.5363,-4.4083305 0,-2.43465365 1.13554,-4.4083304 2.5363,-4.4083304 1.400759,0 2.536299,1.97367675 2.536299,4.4083304 z"
             sodipodi:ry="4.4083304"
             sodipodi:rx="2.5362995"
             sodipodi:cy="1.4795948"
             sodipodi:cx="-26.933086"
             id="path4760"
             style="fill:#adafad;fill-opacity:1;fill-rule:evenodd;stroke:#000000;stroke-width:0.64629066;stroke-linecap:round;stroke-linejoin:round;stroke-miterlimit:4;stroke-opacity:1;stroke-dasharray:none;stroke-dashoffset:0"
             sodipodi:type="arc" />
          <path
             sodipodi:type="arc"
             style="fill:#adafad;fill-opacity:1;fill-rule:evenodd;stroke:#000000;stroke-width:0.33499253;stroke-linecap:round;stroke-linejoin:round;stroke-miterlimit:4;stroke-opacity:1;stroke-dasharray:none;stroke-dashoffset:0"
             id="path4762"
             sodipodi:cx="-26.933086"
             sodipodi:cy="1.4795948"
             sodipodi:rx="2.5362995"
             sodipodi:ry="4.4083304"
             d="m -24.396787,1.4795948 c 0,2.4346537 -1.13554,4.4083305 -2.536299,4.4083305 -1.40076,0 -2.5363,-1.9736768 -2.5363,-4.4083305 0,-2.43465365 1.13554,-4.4083304 2.5363,-4.4083304 1.400759,0 2.536299,1.97367675 2.536299,4.4083304 z"
             transform="matrix(0.43419731,-0.12990413,0.21141389,0.64941862,58.472573,1008.6052)"
             inkscape:transform-center-x="1.8634825"
             inkscape:transform-center-y="2.5733419" />
          <path
             sodipodi:type="arc"
             style="fill:#adafad;fill-opacity:1;fill-rule:evenodd;stroke:#000000;stroke-width:0.64629066;stroke-linecap:round;stroke-linejoin:round;stroke-miterlimit:4;stroke-opacity:1;stroke-dasharray:none;stroke-dashoffset:0"
             id="path4764"
             sodipodi:cx="-26.933086"
             sodipodi:cy="1.4795948"
             sodipodi:rx="2.5362995"
             sodipodi:ry="4.4083304"
             d="m -24.396787,1.4795948 c 0,2.4346537 -1.13554,4.4083305 -2.536299,4.4083305 -1.40076,0 -2.5363,-1.9736768 -2.5363,-4.4083305 0,-2.43465365 1.13554,-4.4083304 2.5363,-4.4083304 1.400759,0 2.536299,1.97367675 2.536299,4.4083304 z"
             transform="matrix(0.44346308,0.2356509,0.13102104,-0.11784728,51.821076,1028.8137)" />
          <path
             inkscape:transform-center-y="-0.89846766"
             inkscape:transform-center-x="1.3769086"
             transform="matrix(0.28118812,-0.28147174,-0.1655167,-0.41175466,56.261204,1009.9618)"
             d="m -24.396787,1.4795948 c 0,2.4346537 -1.13554,4.4083305 -2.536299,4.4083305 -1.40076,0 -2.5363,-1.9736768 -2.5363,-4.4083305 0,-2.43465365 1.13554,-4.4083304 2.5363,-4.4083304 1.400759,0 2.536299,1.97367675 2.536299,4.4083304 z"
             sodipodi:ry="4.4083304"
             sodipodi:rx="2.5362995"
             sodipodi:cy="1.4795948"
             sodipodi:cx="-26.933086"
             id="path4766"
             style="fill:#adafad;fill-opacity:1;fill-rule:evenodd;stroke:#000000;stroke-width:0.46245733;stroke-linecap:round;stroke-linejoin:round;stroke-miterlimit:4;stroke-opacity:1;stroke-dasharray:none;stroke-dashoffset:0"
             sodipodi:type="arc" />
          <path
             inkscape:transform-center-y="1.3534807"
             transform="matrix(0.4649911,0.15727238,0.11053036,-0.14140652,62.19965,1023.9154)"
             d="m -24.396787,1.4795948 c 0,2.4346537 -1.13554,4.4083305 -2.536299,4.4083305 -1.40076,0 -2.5363,-1.9736768 -2.5363,-4.4083305 0,-2.43465365 1.13554,-4.4083304 2.5363,-4.4083304 1.400759,0 2.536299,1.97367675 2.536299,4.4083304 z"
             sodipodi:ry="4.4083304"
             sodipodi:rx="2.5362995"
             sodipodi:cy="1.4795948"
             sodipodi:cx="-26.933086"
             id="path4768"
             style="fill:#adafad;fill-opacity:1;fill-rule:evenodd;stroke:#000000;stroke-width:0.64629066;stroke-linecap:round;stroke-linejoin:round;stroke-miterlimit:4;stroke-opacity:1;stroke-dasharray:none;stroke-dashoffset:0"
             sodipodi:type="arc" />
          <path
             style="fill:#999999;stroke:#000000;stroke-width:0.18634725;stroke-linecap:round;stroke-linejoin:round;stroke-miterlimit:4;stroke-opacity:1;stroke-dashoffset:0"
             d="m 45.011258,1006.9976 c 0.127029,-0.7113 1.098773,-0.1221 1.655431,-0.074 0.879254,0.076 1.749115,0.3853 2.624392,0.57 0.379106,0.08 0.811167,-0.018 1.137907,0.2331 0.5088,0.3909 1.66564,0.6255 0.978536,1.7504 -0.387146,0.6338 -1.651485,0.7553 -2.544065,0.8939 -0.406222,0.063 -0.842543,0.1158 -1.248411,-0.033 -0.442189,-0.1623 -0.766108,-0.6258 -1.172576,-0.8935 -0.240074,-0.1581 -0.517467,-0.2356 -0.744179,-0.4186 -0.458636,-0.3702 -1.158497,-0.7359 -1.20531,-1.3411 -0.02428,-0.3139 0.518275,-0.6868 0.518275,-0.6868 z"
             id="rect4043"
             inkscape:connector-curvature="0"
             sodipodi:nodetypes="caaasaaaaacc" />
          <path
             sodipodi:type="arc"
             style="fill:#ffffff;stroke:#000000;stroke-width:1.00114715;stroke-linecap:round;stroke-linejoin:round;stroke-miterlimit:4;stroke-opacity:1;stroke-dasharray:none;stroke-dashoffset:0"
             id="path4056"
             sodipodi:cx="11.162948"
             sodipodi:cy="7.5074706"
             sodipodi:rx="2.643856"
             sodipodi:ry="2.9620979"
             d="m 13.806804,7.5074706 c 0,1.6359215 -1.183695,2.9620974 -2.643856,2.9620974 -1.4601617,0 -2.6438564,-1.3261759 -2.6438564,-2.9620974 0,-1.6359215 1.1836947,-2.9620979 2.6438564,-2.9620979 1.460161,0 2.643856,1.3261764 2.643856,2.9620979 z"
             transform="matrix(0.20060089,-0.07422177,0.0316167,0.08545118,44.616966,1007.8364)" />
          <path
             sodipodi:nodetypes="cccccccsccsc"
             inkscape:connector-curvature="0"
             inkscape:original-d="m 38.987346,1005.0525 c 0.117413,0.1353 0.234826,0.2706 0.352238,0.4059 1.636636,1.3796 0.446411,1.6424 2.235848,1.2355 0.0073,0.02 3.222587,0.258 3.229857,0.278 0.04443,-0.016 0.08886,-0.033 0.13329,-0.049 0.46476,-0.083 0.764173,-0.2566 1.044504,-0.4566 -0.0073,-0.02 -0.01454,-0.039 -0.02181,-0.059 -0.125151,-0.9731 8.575654,1.943 1.400012,-1.9001 -0.655188,-0.3509 0.417839,-1.2239 0.286528,-2.1482 0.0075,-0.025 0.01508,-0.051 0.02262,-0.076 -0.04363,-0.1179 -0.08726,-0.2358 -0.130885,-0.3537 -0.09454,-0.2555 -0.02119,-0.5731 -0.115718,-0.8286"
             inkscape:path-effect="#path-effect4772"
             id="path4770"
             d="m 38.987346,1005.0525 0.352238,0.4059 2.235848,1.2355 3.229857,0.278 0.13329,-0.049 1.044504,-0.4566 -0.02181,-0.059 c 0.621963,-0.4965 1.110111,-1.159 1.400012,-1.9001 0.265712,-0.6793 0.364911,-1.423 0.286528,-2.1482 l 0.02262,-0.076 -0.130885,-0.3537 c -0.04908,-0.1326 -0.09599,-0.267 -0.118969,-0.4065 -0.02298,-0.1396 -0.02282,-0.2831 0.0033,-0.4221"
             style="fill:none;stroke:#000000;stroke-width:0.46586809px;stroke-linecap:butt;stroke-linejoin:miter;stroke-opacity:1" />
        </g>
      </g>
    </g>
    <g
       transform="matrix(0.55392859,0,0,0.56884946,-0.6230867,427.58599)"
       style="fill:none"
       id="g4068">
      <rect
         style="fill:none;stroke:#000000;stroke-width:1.24701715;stroke-linecap:round;stroke-linejoin:round;stroke-miterlimit:4;stroke-opacity:1;stroke-dasharray:none;stroke-dashoffset:0"
         id="rect4070"
         width="19.333334"
         height="25.481485"
         x="1.6296297"
         y="1024.955"
         rx="6.2008572"
         ry="6.0382104" />
      <path
         style="fill:none;stroke:#000000;stroke-width:1.78145337px;stroke-linecap:butt;stroke-linejoin:miter;stroke-opacity:1"
         d="m 4.2674603,1027.8907 c -0.370371,0.074 11.9259257,0.074 11.9259257,0.074"
         id="path4072"
         inkscape:connector-curvature="0" />
      <path
         inkscape:connector-curvature="0"
         id="path4074"
         d="m 4.2674603,1030.5104 c -0.370371,0.074 11.9259257,0.074 11.9259257,0.074"
         style="fill:none;stroke:#000000;stroke-width:1.78145337px;stroke-linecap:butt;stroke-linejoin:miter;stroke-opacity:1" />
      <path
         style="fill:none;stroke:#000000;stroke-width:1.78145337px;stroke-linecap:butt;stroke-linejoin:miter;stroke-opacity:1"
         d="m 4.2674603,1033.3993 c -0.370371,0.074 11.9259257,0.074 11.9259257,0.074"
         id="path4076"
         inkscape:connector-curvature="0" />
      <path
         inkscape:connector-curvature="0"
         id="path4078"
         d="m 4.2633843,1036.5844 c -0.186335,0.074 5.9999997,0.074 5.9999997,0.074"
         style="fill:none;stroke:#000000;stroke-width:1.78145325px;stroke-linecap:butt;stroke-linejoin:miter;stroke-opacity:1" />
      <path
         style="fill:none;stroke:#000000;stroke-width:1.78145325px;stroke-linecap:butt;stroke-linejoin:miter;stroke-opacity:1"
         d="m 4.2633843,1036.5844 c -0.186336,0.074 5.9999987,0.074 5.9999987,0.074"
         id="path4080"
         inkscape:connector-curvature="0" />
      <path
         style="fill:none;stroke:#000000;stroke-width:1.78145337px;stroke-linecap:butt;stroke-linejoin:miter;stroke-opacity:1"
         d="m 7.2304233,1040.1975 c -0.370371,0.074 11.9259257,0.074 11.9259257,0.074"
         id="path4082"
         inkscape:connector-curvature="0" />
      <path
         inkscape:connector-curvature="0"
         id="path4084"
         d="m 7.2304233,1044.2882 c -0.370371,0.074 11.9259257,0.074 11.9259257,0.074"
         style="fill:none;stroke:#000000;stroke-width:1.78145337px;stroke-linecap:butt;stroke-linejoin:miter;stroke-opacity:1" />
      <path
         style="fill:none;stroke:#000000;stroke-width:1.78145325px;stroke-linecap:butt;stroke-linejoin:miter;stroke-opacity:1"
         d="m 7.2263473,1047.4733 c -0.186335,0.074 5.9999997,0.074 5.9999997,0.074"
         id="path4086"
         inkscape:connector-curvature="0" />
      <path
         inkscape:connector-curvature="0"
         id="path4088"
         d="m 7.2263473,1047.4733 c -0.186336,0.074 5.9999987,0.074 5.9999987,0.074"
         style="fill:none;stroke:#000000;stroke-width:1.78145325px;stroke-linecap:butt;stroke-linejoin:miter;stroke-opacity:1" />
    </g>
    <path
       style="fill:none;stroke:#000000;stroke-width:0.99999994px;stroke-linecap:butt;stroke-linejoin:miter;stroke-opacity:1"
       d="m 0.81481481,1050.0634 c 0.14020785,-0.059 0.30423669,-0.059 0.44444449,0 0.04962,0.021 0.096465,0.049 0.1481481,0.064 0.059558,0.017 0.1228451,0.017 0.1847175,0.012 0.061873,-0 0.1236148,-0.014 0.1856529,-0.012 0.062296,0 0.1239026,0.013 0.1859788,0.018 0.062076,0.01 0.1262851,0 0.1843915,-0.018 0.025169,-0.01 0.04864,-0.023 0.072633,-0.036 0.023993,-0.012 0.048932,-0.024 0.075515,-0.028 0.024354,-0 0.049301,-0 0.074001,-0 0.0247,0 0.04942,0 0.074147,0 0.074074,0 0.1481482,0 0.2222223,0 0.2716049,0 0.5432099,0 0.8148148,0 0.074477,0 0.1488751,-0 0.2230457,-0.011 0.074171,-0.01 0.1511044,-0.014 0.2213987,0.011 0.05088,0.018 0.095603,0.052 0.1481482,0.064 0.036189,0.01 0.073869,0.01 0.1109269,0 0.037059,-0 0.074168,-0 0.1112953,-0 l 0.5925926,0 0.7407407,0 0.1481482,0 c 0.1953825,0.037 0.3937699,0.059 0.5925926,0.064 0.1234185,0 0.2469079,5e-4 0.3703703,0 0.024691,-10e-5 0.049383,-10e-5 0.074074,0 0.069197,0.035 0.1450156,0.057 0.2222222,0.064 0.1230603,0.011 0.2475798,-0.014 0.3703704,0 0.088729,0.01 0.1736622,0.041 0.2582517,0.069 0.084589,0.029 0.1710251,0.056 0.2602668,0.059 0.049364,0 0.098876,-0 0.1481482,0 0.07718,0.01 0.1509201,0.033 0.2229991,0.061 0.072079,0.028 0.1447107,0.058 0.2214453,0.068 0.073542,0.01 0.1480663,9e-4 0.2222222,0 0.1800105,-0 0.360387,0.043 0.5185186,0.1286 l 0.074074,0 c 0.042097,0.035 0.094083,0.057 0.1481482,0.064 0.073594,0.01 0.1486283,-0.01 0.2222222,0 0.054065,0.01 0.1060513,0.029 0.1481482,0.064 l 0.074074,0 c 0.092865,0.042 0.1945142,0.064 0.2962962,0.064 0.07418,3e-4 0.148823,-0.011 0.222222,0 0.07636,0.011 0.147373,0.045 0.222223,0.064 0.120088,0.03 0.246096,0.021 0.369638,0.013 0.123542,-0.01 0.247287,-0.013 0.371102,-0.013 l 0.148149,0 c 0.02498,0 0.0499,-0 0.07466,-0.01 0.01238,-0 0.02482,-0 0.03731,-0 0.01249,3e-4 0.02516,0 0.03618,0.01 0.01457,0.01 0.02501,0.021 0.03564,0.034 0.0053,0.01 0.0108,0.013 0.01709,0.018 0.0063,0.01 0.01344,0.01 0.02134,0.012 0.01185,0 0.02457,0 0.03693,0 0.01236,-10e-4 0.02474,-0 0.03714,-0 l 0.07407,0 c 0.172896,0 0.346217,-0.014 0.518518,0 0.100978,0.01 0.200853,0.03 0.296297,0.064 0.122208,-0.022 0.248162,-0.022 0.37037,0 0.09955,0.017 0.196333,0.049 0.296296,0.064 0.244633,0.037 0.494977,-0.028 0.740741,0 0.100491,0.011 0.198514,0.038 0.296296,0.064 0.364258,0.096 0.73451,0.1819 1.111112,0.1929 0.148091,0 0.29629,0 0.444444,0 l 0.444444,0 c 0.172862,0 0.345894,-0.01 0.518519,0 0.198462,0.01 0.394182,0.053 0.592593,0.064 0.395378,0.023 0.796829,-0.078 1.185185,0 0.09913,0.02 0.196046,0.051 0.296296,0.064 0.147077,0.019 0.296148,-0 0.444444,0 0.400938,0 0.784749,0.1723 1.185186,0.1929 0.147972,0.01 0.296277,0 0.444444,0 l 0.592593,0 c 0.148188,0 0.296676,-0.011 0.444444,0 0.14932,0.011 0.295125,0.053 0.444445,0.064 0.147768,0.011 0.296256,0 0.444444,0 l 1.555556,0 4.296296,0 1.703704,0 c 0.197655,0 0.396235,-0.023 0.592592,0 0.124526,0.014 0.245529,0.053 0.370371,0.064 0.17234,0.016 0.34676,-0.021 0.518518,0 0.176978,0.022 0.34201,0.1034 0.518519,0.1286 0.122443,0.017 0.2469,0.01 0.37037,0 0.14803,-0.01 0.296753,-0.013 0.444444,0 0.173514,0.016 0.344499,0.056 0.518519,0.064 0.074,0 0.148144,0 0.222222,0 0.246887,-0 0.49385,0 0.740741,0 0.123472,-0 0.247066,-0.01 0.37037,0 0.0494,0 0.0992,0.01 0.148148,0 0.05383,-0.01 0.105479,-0.03 0.148149,-0.064 l 0.07407,0 0.37037,0 c 0.02473,0 0.04945,7e-4 0.07415,0 0.0247,0 0.04966,0 0.074,-0 0.02656,-0 0.05141,-0.016 0.07536,-0.029 0.02395,-0.012 0.04746,-0.026 0.07279,-0.035 0.06993,-0.026 0.147138,-0.018 0.221318,-0.011 0.07418,0.01 0.14861,0.011 0.223127,0.011 l 1.185185,0 3.481481,0"
       id="path4795"
       inkscape:path-effect="#path-effect4797"
       inkscape:original-d="m 0.81481481,1050.0634 c 0.14613244,0.021 0.29917319,-0.025 0.44444449,0 0.054139,0.01 0.094585,0.053 0.1481481,0.064 0.067152,0.015 0.2843208,0 0.3703704,0 0.080882,0 0.3224662,0.014 0.3703703,0 0.052378,-0.015 0.094585,-0.053 0.1481482,-0.064 0.047908,-0.01 0.098765,0 0.1481481,0 0.074074,0 0.1481482,0 0.2222223,0 0.2716049,0 0.5432098,0 0.8148148,0 0.072768,0 0.395452,-0.014 0.4444444,0 0.052378,0.015 0.094009,0.055 0.1481482,0.064 0.072636,0.013 0.1481481,0 0.2222222,0 0.1975309,0 0.3950617,0 0.5925926,0 0.2469136,0 0.4938271,0 0.7407407,0 0.049383,0 0.09901,0 0.1481482,0 0.1980801,0.017 0.394342,0.049 0.5925926,0.064 0.1229497,0.01 0.2469136,0 0.3703703,0 0.024691,0 0.05012,-0.01 0.074074,0 0.07575,0.016 0.1456576,0.051 0.2222222,0.064 0.1210594,0.021 0.2481544,-0.015 0.3703704,0 0.6443524,0.08 -0.00913,0.037 0.5185185,0.1286 0.048424,0.01 0.099724,-0.01 0.1481482,0 0.1531293,0.027 0.2904073,0.1064 0.4444444,0.1287 0.073066,0.011 0.1488926,-0.01 0.2222222,0 0.3232976,0.04 0.2371039,0.068 0.5185186,0.1286 0.023954,0.01 0.05065,-0.01 0.074074,0 0.052378,0.015 0.09577,0.049 0.1481482,0.064 0.070273,0.02 0.1503598,-0.015 0.2222222,0 0.053563,0.012 0.09577,0.049 0.1481482,0.064 0.023424,0.01 0.049862,0 0.074074,0 0.099828,0.017 0.1964682,0.047 0.2962962,0.064 0.07264,0.013 0.149587,-0.013 0.222222,0 0.07656,0.013 0.144745,0.056 0.222223,0.064 0.155071,0.017 0.549929,0 0.74074,0 0.04938,0 0.09877,0 0.148149,0 0.04938,0 0.101299,-0.014 0.148148,0 0.03313,0.01 0.04284,0.051 0.07407,0.064 0.02208,0.01 0.04938,0 0.07407,0 0.02469,0 0.04938,0 0.07407,0 0.16643,0 0.357549,-0.017 0.518518,0 0.101019,0.011 0.197531,0.043 0.296297,0.064 0.123457,0 0.247668,-0.012 0.37037,0 0.101183,0.01 0.195277,0.053 0.296296,0.064 0.245007,0.027 0.495053,-0.021 0.740741,0 0.1013,0.01 0.197531,0.043 0.296296,0.064 0.442068,0.096 0.665346,0.1632 1.111112,0.1929 0.147711,0.01 0.296296,0 0.444444,0 0.148148,0 0.296296,0 0.444444,0 0.17284,0 0.346062,-0.01 0.518519,0 0.198627,0.012 0.393912,0.054 0.592593,0.064 0.394292,0.021 0.791488,-0.028 1.185185,0 0.101453,0.01 0.194996,0.055 0.296296,0.064 0.147413,0.013 0.297785,-0.018 0.444444,0 1.354722,0.168 -0.165756,0.1091 1.185186,0.1929 0.147771,0.01 0.296296,0 0.444444,0 0.197531,0 0.395062,0 0.592593,0 0.148148,0 0.296808,-0.011 0.444444,0 0.149673,0.011 0.294772,0.053 0.444445,0.064 0.147636,0.011 0.296296,0 0.444444,0 0.518519,0 1.037037,0 1.555556,0 1.432098,0 2.864197,0 4.296296,0 0.567901,0 1.135802,0 1.703704,0 0.19753,0 0.395643,-0.013 0.592592,0 0.125531,0.01 0.244904,0.055 0.370371,0.064 0.172242,0.012 0.347416,-0.021 0.518518,0 0.177949,0.022 0.341209,0.1029 0.518519,0.1286 0.121777,0.018 0.246913,0 0.37037,0 0.148148,0 0.296733,-0.01 0.444444,0 0.17408,0.012 0.344791,0.049 0.518519,0.064 0.07371,0.01 0.148148,-0.9005 0.222222,0 0.01759,0.2139 0.641975,-0.9005 0.740741,0 0.0117,0.1067 0.246913,0 0.37037,0 0.04938,0 0.10024,0.01 0.148148,0 0.05356,-0.012 0.09577,-0.049 0.148149,-0.064 0.02342,-0.01 0.04938,0 0.07407,0 0.123456,0 0.246913,0 0.37037,0 0.04938,0 0.1013,0.014 0.148148,0 0.05238,-0.015 0.09577,-0.049 0.148148,-0.064 0.03724,-0.011 0.425097,0 0.444445,0 0.395061,0 0.790123,0 1.185185,0 1.160494,0 2.320988,0 3.481481,0"
       inkscape:connector-curvature="0"
       sodipodi:nodetypes="cccsccsssccsssccsccscccccccccccccssccssccscsccsscccsscssssssssccccsccsssccssccssc" />
    <path
       style="fill:none;stroke:#000000;stroke-width:1px;stroke-linecap:butt;stroke-linejoin:miter;stroke-opacity:1"
       d="m 14.888885,38.074082 0,0.37037 c 0,0.02502 0.0022,0.04997 0.0057,0.07474 0.0018,0.01239 0.0034,0.02484 0.0032,0.03735 -2.53e-4,0.01251 -0.0026,0.02523 -0.0089,0.03605 -0.0089,0.01534 -0.02457,0.02521 -0.03916,0.03527 -0.0073,0.005 -0.0145,0.01029 -0.02071,0.0166 -0.0062,0.0063 -0.01145,0.01377 -0.0142,0.0222 -0.0038,0.01179 -0.0028,0.02456 -0.0017,0.03692 0.0011,0.01236 0.0017,0.02475 0.0017,0.03715 l 0,0.37037 0,1.407408 c 0.0017,0.04736 0.02244,0.09377 0.05655,0.126667 0.03411,0.0329 0.08124,0.05192 0.128634,0.05192 0.04739,0 0.09452,-0.01902 0.128634,-0.05192 0.03411,-0.0329 0.05483,-0.07931 0.05655,-0.126667 8.96e-4,-0.0247 -0.0031,-0.04956 0,-0.07408 0.0034,-0.02675 0.0154,-0.05196 0.03168,-0.07347 0.01628,-0.02151 0.03677,-0.03952 0.0585,-0.0555 0.04346,-0.03195 0.09258,-0.05648 0.132043,-0.09325 0.06536,-0.06091 0.09752,-0.148613 0.148149,-0.222222 0.04961,-0.07212 0.116647,-0.130203 0.183422,-0.186809 0.06677,-0.05661 0.134734,-0.113299 0.186948,-0.183561 0.05317,-0.07154 0.08884,-0.155677 0.148148,-0.222223 0.04653,-0.05221 0.106344,-0.09209 0.148148,-0.148148 0.05024,-0.06737 0.07005,-0.151799 0.0949,-0.232081 0.01243,-0.04014 0.02647,-0.08001 0.0466,-0.116899 0.02013,-0.03688 0.04665,-0.07086 0.08072,-0.09546 0.01453,-0.01049 0.03034,-0.01922 0.0442,-0.03058 0.01387,-0.01136 0.02601,-0.02599 0.02988,-0.04349 0.0027,-0.01212 0.0012,-0.02472 -1.91e-4,-0.03705 -0.0014,-0.01233 -0.0027,-0.02496 1.91e-4,-0.03702 0.0042,-0.01735 0.01677,-0.03152 0.03071,-0.04267 0.01394,-0.01115 0.02961,-0.02001 0.04336,-0.0314 0.03023,-0.02505 0.04975,-0.06151 0.05857,-0.09976 0.0088,-0.03825 0.0075,-0.07828 9.93e-4,-0.116998 -0.01298,-0.07743 -0.04609,-0.150343 -0.05956,-0.227687 -0.0043,-0.02452 -0.0065,-0.05004 0,-0.07407 0.0048,-0.01764 0.01423,-0.03399 0.02716,-0.04691 0.01292,-0.01292 0.02927,-0.02239 0.04692,-0.02716"
       id="path4799"
       inkscape:path-effect="#path-effect4801"
       inkscape:original-d="m 14.888885,38.074082 c 0,0.123457 0,0.246914 0,0.37037 0,0.04938 0.01562,0.101299 0,0.148149 -0.01104,0.03312 -0.05845,0.04284 -0.07407,0.07407 -0.01104,0.02208 0,0.04938 0,0.07407 0,0.123457 0,0.246913 0,0.37037 0,0.469136 0,0.938272 0,1.407408 0.123457,0 0.249311,0.02421 0.37037,0 0.02421,-0.0048 -0.01482,-0.05432 0,-0.07408 0.06285,-0.0838 0.155159,-0.141746 0.222222,-0.222222 0.05699,-0.06839 0.09116,-0.15383 0.148149,-0.222222 0.111772,-0.134127 0.261302,-0.234035 0.37037,-0.37037 0.05561,-0.06952 0.09253,-0.152705 0.148148,-0.222223 0.04363,-0.05453 0.106246,-0.09228 0.148148,-0.148148 0.08582,-0.114425 0.139988,-0.321093 0.222222,-0.444444 0.01937,-0.02905 0.05846,-0.04284 0.07408,-0.07407 0.01104,-0.02208 -0.01104,-0.05199 0,-0.07407 0.01562,-0.03123 0.05846,-0.04284 0.07407,-0.07407 0.0096,-0.01915 0,-0.391941 0,-0.444445 0,-0.02469 -0.01746,-0.05661 0,-0.07407 0.09877,-0.09877 0.07407,0.123457 0.07407,-0.07407"
       inkscape:connector-curvature="0"
       transform="translate(0,1010.3622)" />
    <path
       style="fill:none;stroke:#000000;stroke-width:1px;stroke-linecap:butt;stroke-linejoin:miter;stroke-opacity:1"
       d="m 14.37037,40.962963 c -0.130986,-0.06252 -0.233469,-0.18213 -0.275176,-0.321151 -0.04171,-0.139022 -0.02198,-0.29529 0.05295,-0.41959 0.01498,-0.02485 0.03244,-0.04946 0.03705,-0.07811 0.0023,-0.01432 0.0011,-0.02946 -0.0051,-0.04256 -0.0031,-0.0066 -0.0075,-0.01253 -0.01293,-0.01732 -0.0054,-0.0048 -0.01199,-0.0084 -0.01902,-0.01015 -0.0121,-0.0031 -0.02481,-7.27e-4 -0.03713,0.0012 -0.0062,9.7e-4 -0.01236,0.0018 -0.0186,0.0019 -0.0062,3.7e-5 -0.01254,-7.83e-4 -0.01834,-0.0031 -0.0063,-0.0025 -0.01192,-0.0068 -0.01626,-0.01205 -0.0043,-0.0053 -0.0075,-0.01148 -0.0094,-0.01802 -0.0038,-0.01309 -0.0029,-0.02719 3.66e-4,-0.04044 0.0064,-0.0265 0.0216,-0.05061 0.02526,-0.07764 0.0039,-0.02843 -0.0056,-0.05737 -0.02056,-0.08184 -0.01498,-0.02447 -0.03524,-0.04518 -0.05522,-0.06577 -0.01997,-0.02059 -0.04004,-0.04155 -0.05448,-0.06633 -0.01445,-0.02478 -0.02297,-0.05412 -0.01789,-0.08235 0.005,-0.02763 0.02224,-0.05158 0.02932,-0.07874 0.0035,-0.01358 0.0044,-0.02824 -2.21e-4,-0.04149 -0.0023,-0.0066 -0.006,-0.01281 -0.01098,-0.01775 -0.005,-0.0049 -0.01128,-0.0086 -0.01812,-0.01017 -0.0062,-0.0014 -0.01265,-0.0011 -0.01891,-4.8e-5 -0.0063,0.001 -0.01239,0.0027 -0.01858,0.0041 -0.0062,0.0014 -0.01253,0.0024 -0.01886,0.002 -0.0063,-3.63e-4 -0.01272,-0.0022 -0.01771,-0.0061 -0.0052,-0.004 -0.0086,-0.01011 -0.01012,-0.01649 -0.0016,-0.0064 -0.0014,-0.0131 -2.62e-4,-0.01958 0.0022,-0.01296 0.0079,-0.0251 0.01038,-0.038 0.0044,-0.02269 -0.0016,-0.0465 -0.01279,-0.0667 -0.01122,-0.0202 -0.0274,-0.03719 -0.04449,-0.05275 -0.01709,-0.01555 -0.03527,-0.02993 -0.05161,-0.04626 -0.01634,-0.01634 -0.03098,-0.03494 -0.03926,-0.05651 -0.0067,-0.0174 -0.009,-0.0362 -0.0093,-0.05484 -2.51e-4,-0.01864 0.0015,-0.03724 0.0034,-0.05578 0.0037,-0.03709 0.0059,-0.07432 0.0059,-0.111599 0,-0.07407 0,-0.148148 0,-0.222222 0,-0.04938 0,-0.09877 0,-0.148148 0,-0.01241 6.86e-4,-0.02481 0.0018,-0.03717 0.0011,-0.01236 0.0023,-0.02517 -0.0018,-0.0369 -0.0029,-0.0084 -0.0084,-0.0157 -0.01486,-0.0218 -0.0064,-0.0061 -0.01385,-0.0111 -0.02126,-0.01599 -0.0074,-0.0049 -0.01491,-0.0097 -0.02163,-0.01551 -0.0067,-0.0058 -0.01268,-0.01268 -0.01632,-0.02078 -0.0051,-0.0114 -0.0053,-0.02439 -0.0041,-0.03683 0.0013,-0.01243 0.0039,-0.02475 0.0041,-0.03724 3.41e-4,-0.02277 -0.0075,-0.04512 -0.01925,-0.06462 -0.01176,-0.0195 -0.02731,-0.03643 -0.04352,-0.05243 -0.0162,-0.016 -0.03319,-0.03125 -0.04842,-0.04817 -0.01524,-0.01692 -0.02881,-0.03573 -0.03695,-0.057 -0.01145,-0.02988 -0.01159,-0.06307 -0.0065,-0.09467 0.0051,-0.0316 0.01516,-0.06213 0.02377,-0.09295 0.0086,-0.03082 0.01582,-0.06247 0.01493,-0.09446 -8.9e-4,-0.03199 -0.01059,-0.06467 -0.03219,-0.08829 -0.01192,-0.01303 -0.02689,-0.02279 -0.04072,-0.03375 -0.01384,-0.01097 -0.02704,-0.02382 -0.03335,-0.04032 -0.0045,-0.01178 -0.0052,-0.02474 -0.004,-0.03729 0.0012,-0.01255 0.0043,-0.02484 0.0071,-0.03714 0.0028,-0.0123 0.0053,-0.02475 0.0055,-0.03736 1.59e-4,-0.01261 -0.0022,-0.0255 -0.0086,-0.03635 -0.0045,-0.0076 -0.01092,-0.01403 -0.01785,-0.01958 -0.0069,-0.0055 -0.01446,-0.01031 -0.0218,-0.0153 -0.0073,-0.005 -0.01457,-0.01026 -0.02074,-0.01665 -0.0062,-0.0064 -0.01126,-0.01401 -0.01367,-0.02255 -0.0034,-0.01199 -0.0013,-0.02476 5.83e-4,-0.03708 0.0019,-0.01232 0.0036,-0.02523 -5.83e-4,-0.03699 -0.0027,-0.0076 -0.0078,-0.01434 -0.01435,-0.019 -0.0066,-0.0047 -0.01463,-0.0072 -0.02269,-0.0072 -0.0081,0 -0.01611,0.0026 -0.02269,0.0072 -0.0066,0.0047 -0.01167,0.0114 -0.01435,0.019 -0.04091,-0.03875 -0.06762,-0.09217 -0.07407,-0.148148 -0.0057,-0.04909 0,-0.09873 0,-0.148148 0,-0.148148 0,-0.296296 0,-0.444444 0,-0.02469 0,-0.04938 0,-0.07407 0,-0.01267 0.0015,-0.02527 0.004,-0.0377 0.0012,-0.0062 0.0024,-0.0125 0.0022,-0.01883 -1.95e-4,-0.0063 -0.0019,-0.01286 -0.0062,-0.01754 -0.0043,-0.0048 -0.01087,-0.0071 -0.01731,-0.0075 -0.0064,-3.67e-4 -0.01285,0.0011 -0.01904,0.0029 -0.0062,0.0018 -0.01228,0.004 -0.01861,0.0053 -0.0063,0.0012 -0.01302,0.0015 -0.01911,-6.44e-4 -0.0065,-0.0022 -0.01193,-0.0071 -0.01544,-0.01296 -0.0035,-0.0059 -0.0052,-0.01279 -0.0053,-0.01964 -2.74e-4,-0.01371 0.0053,-0.02684 0.0115,-0.03907 0.0062,-0.01222 0.0133,-0.02424 0.0165,-0.03758 0.0016,-0.0067 0.0022,-0.01364 0.0011,-0.02041 -0.0011,-0.0068 -0.0038,-0.01336 -0.0084,-0.01848 -0.0044,-0.005 -0.01043,-0.0084 -0.01683,-0.01029 -0.0064,-0.0018 -0.0132,-0.0021 -0.01981,-0.0013 -0.01323,0.0016 -0.02557,0.0073 -0.03769,0.01281 -0.01212,0.0055 -0.02459,0.01105 -0.03786,0.01219 -0.0066,5.72e-4 -0.01343,1.3e-5 -0.01973,-0.0021 -0.0063,-0.0022 -0.01211,-0.006 -0.01621,-0.01122 -0.0039,-0.005 -0.0062,-0.0112 -0.0071,-0.0175 -9.18e-4,-0.0063 -5.51e-4,-0.01272 3.84e-4,-0.01902 0.0019,-0.01259 0.006,-0.02484 0.0067,-0.03755 0.0011,-0.01967 -0.0066,-0.03966 -0.02048,-0.05359 -0.01393,-0.01393 -0.03392,-0.02157 -0.05359,-0.02048"
       id="path4803"
       inkscape:path-effect="#path-effect4805"
       inkscape:original-d="m 14.37037,40.962963 c 0.01541,-0.27135 -0.171666,-0.487961 -0.222222,-0.740741 -0.0097,-0.04842 0.02208,-0.103979 0,-0.148148 -0.01104,-0.02209 -0.06303,0.02208 -0.07407,0 -0.02208,-0.04417 0.01198,-0.10024 0,-0.148148 -0.02678,-0.107126 -0.113229,-0.19154 -0.148148,-0.296296 -0.01562,-0.04685 0.03492,-0.11323 0,-0.148149 -0.01746,-0.01746 -0.05662,0.01746 -0.07407,0 -0.01746,-0.01746 0.01104,-0.05199 0,-0.07407 -0.09409,-0.188188 -0.08853,0.07586 -0.148148,-0.222222 -0.01453,-0.07263 0,-0.148148 0,-0.222222 0,-0.07407 0,-0.148148 0,-0.222222 0,-0.04938 0,-0.09877 0,-0.148148 0,-0.02469 0.01104,-0.05199 0,-0.07407 -0.01562,-0.03123 -0.05846,-0.04284 -0.07407,-0.07408 -0.01104,-0.02208 0.01104,-0.05199 0,-0.07407 -0.169504,-0.339008 0.0307,0.314328 -0.148149,-0.222222 -0.02135,-0.06404 0.02357,-0.323235 0,-0.37037 -0.01562,-0.03123 -0.05846,-0.04284 -0.07407,-0.07407 -0.02208,-0.04417 0.02209,-0.103979 0,-0.148148 -0.01562,-0.03123 -0.05846,-0.04284 -0.07407,-0.07408 -0.01104,-0.02208 0.01746,-0.05661 0,-0.07407 -0.01746,-0.01746 -0.04938,0 -0.07407,0 -0.02469,-0.04938 -0.05661,-0.09577 -0.07407,-0.148148 -0.01562,-0.04685 0,-0.09877 0,-0.148148 0,-0.148148 0,-0.296296 0,-0.444444 0,-0.02469 0,-0.04938 0,-0.07407 0,-0.02469 0.01746,-0.05662 0,-0.07407 -0.01746,-0.01746 -0.05661,0.01746 -0.07407,0 -0.03492,-0.03492 0.03492,-0.11323 0,-0.148149 -0.03492,-0.03492 -0.113229,0.03492 -0.148148,0 -0.01746,-0.01746 0.01746,-0.05661 0,-0.07407 -0.09877,-0.09877 -0.07407,0.123457 -0.07407,-0.07407"
       inkscape:connector-curvature="0"
       transform="translate(0,1010.3622)" />
    <path
       inkscape:connector-curvature="0"
       inkscape:original-d="m 38.444441,1048.9548 c 0,0.1235 0,0.2469 0,0.3704 0,0.049 0.01562,0.1013 0,0.1481 -0.01104,0.033 -0.05845,0.043 -0.07407,0.074 -0.01104,0.022 0,0.049 0,0.074 0,0.1234 0,0.2469 0,0.3703 0,0.4692 0,0.9383 0,1.4074 0.123457,0 0.249311,0.024 0.37037,0 0.02421,-0 -0.01482,-0.054 0,-0.074 0.06285,-0.084 0.155159,-0.1418 0.222222,-0.2223 0.05699,-0.068 0.09116,-0.1538 0.148149,-0.2222 0.111772,-0.1341 0.261302,-0.234 0.37037,-0.3704 0.05561,-0.069 0.09253,-0.1527 0.148148,-0.2222 0.04363,-0.054 0.106246,-0.092 0.148148,-0.1481 0.08582,-0.1145 0.139988,-0.3211 0.222222,-0.4445 0.01937,-0.029 0.05846,-0.043 0.07408,-0.074 0.01104,-0.022 -0.01104,-0.052 0,-0.074 0.01562,-0.031 0.05846,-0.043 0.07407,-0.074 0.0096,-0.019 0,-0.3919 0,-0.4444 0,-0.025 -0.01746,-0.057 0,-0.074 0.09877,-0.099 0.07407,0.1235 0.07407,-0.074"
       inkscape:path-effect="#path-effect4811"
       id="path4807"
       d="m 38.444441,1048.9548 0,0.3704 c 0,0.025 0.0022,0.05 0.0057,0.075 0.0018,0.012 0.0034,0.025 0.0032,0.037 -2.53e-4,0.013 -0.0026,0.025 -0.0089,0.036 -0.0089,0.015 -0.02457,0.025 -0.03916,0.035 -0.0073,0.01 -0.0145,0.01 -0.02071,0.017 -0.0062,0.01 -0.01146,0.014 -0.0142,0.022 -0.0038,0.012 -0.0028,0.024 -0.0017,0.037 0.0011,0.012 0.0017,0.025 0.0017,0.037 l 0,0.3703 0,1.4074 0.37037,0 c -0.0061,-0.024 -0.0061,-0.05 0,-0.074 0.0066,-0.026 0.01996,-0.05 0.03676,-0.071 0.0168,-0.021 0.03696,-0.039 0.05813,-0.055 0.04234,-0.033 0.08929,-0.059 0.127331,-0.097 0.06357,-0.063 0.09687,-0.1491 0.148149,-0.2222 0.100569,-0.1433 0.266202,-0.2297 0.37037,-0.3704 0.05304,-0.072 0.08881,-0.1557 0.148148,-0.2222 0.04655,-0.052 0.106357,-0.092 0.148148,-0.1481 0.05024,-0.067 0.07002,-0.1518 0.09486,-0.2321 0.01242,-0.04 0.02647,-0.08 0.0466,-0.117 0.02014,-0.037 0.04667,-0.071 0.08076,-0.095 0.01453,-0.011 0.03033,-0.019 0.0442,-0.031 0.01387,-0.011 0.02602,-0.026 0.02988,-0.043 0.0027,-0.012 0.0012,-0.025 -1.91e-4,-0.037 -0.0014,-0.012 -0.0027,-0.025 1.91e-4,-0.037 0.0042,-0.017 0.01677,-0.032 0.03071,-0.043 0.01394,-0.011 0.02961,-0.02 0.04336,-0.031 0.03024,-0.025 0.04978,-0.062 0.0586,-0.1 0.0088,-0.038 0.0075,-0.078 9.92e-4,-0.117 -0.01299,-0.077 -0.04612,-0.1504 -0.05959,-0.2277 -0.0043,-0.024 -0.0065,-0.05 0,-0.074 0.0048,-0.018 0.01423,-0.034 0.02716,-0.047 0.01292,-0.013 0.02927,-0.022 0.04691,-0.027"
       style="fill:none;stroke:#000000;stroke-width:1px;stroke-linecap:butt;stroke-linejoin:miter;stroke-opacity:1" />
    <path
       inkscape:connector-curvature="0"
       inkscape:original-d="m 37.925926,1051.8437 c 0.01541,-0.2714 -0.171666,-0.488 -0.222222,-0.7408 -0.0097,-0.048 0.02208,-0.1039 0,-0.1481 -0.01104,-0.022 -0.06303,0.022 -0.07407,0 -0.02208,-0.044 0.01198,-0.1002 0,-0.1482 -0.02678,-0.1071 -0.113229,-0.1915 -0.148148,-0.2963 -0.01562,-0.047 0.03492,-0.1132 0,-0.1481 -0.01746,-0.017 -0.05662,0.017 -0.07407,0 -0.01746,-0.017 0.01104,-0.052 0,-0.074 -0.09409,-0.1882 -0.08853,0.076 -0.148148,-0.2222 -0.01453,-0.073 0,-0.1481 0,-0.2222 0,-0.074 0,-0.1482 0,-0.2222 0,-0.049 0,-0.099 0,-0.1482 0,-0.025 0.01104,-0.052 0,-0.074 -0.01562,-0.031 -0.05846,-0.043 -0.07407,-0.074 -0.01104,-0.022 0.01104,-0.052 0,-0.074 -0.169504,-0.339 0.0307,0.3143 -0.148149,-0.2222 -0.02135,-0.064 0.02357,-0.3233 0,-0.3704 -0.01562,-0.031 -0.05846,-0.043 -0.07407,-0.074 -0.02208,-0.044 0.02209,-0.1039 0,-0.1481 -0.01562,-0.031 -0.05846,-0.043 -0.07407,-0.074 -0.01104,-0.022 0.01746,-0.057 0,-0.074 -0.01746,-0.017 -0.04938,0 -0.07407,0 -0.02469,-0.049 -0.05661,-0.096 -0.07407,-0.1481 -0.01562,-0.047 0,-0.099 0,-0.1482 0,-0.1481 0,-0.2963 0,-0.4444 0,-0.025 0,-0.049 0,-0.074 0,-0.025 0.01746,-0.057 0,-0.074 -0.01746,-0.017 -0.05661,0.017 -0.07407,0 -0.03492,-0.035 0.03492,-0.1133 0,-0.1482 -0.03492,-0.035 -0.113229,0.035 -0.148148,0 -0.01746,-0.017 0.01746,-0.057 0,-0.074 -0.09877,-0.099 -0.07407,0.1235 -0.07407,-0.074"
       inkscape:path-effect="#path-effect4813"
       id="path4809"
       d="m 37.925926,1051.8437 c -0.130988,-0.062 -0.23347,-0.1822 -0.275176,-0.3212 -0.04171,-0.139 -0.02198,-0.2953 0.05295,-0.4196 0.01498,-0.025 0.03242,-0.049 0.03703,-0.078 0.0023,-0.014 0.0011,-0.029 -0.0051,-0.043 -0.0031,-0.01 -0.0075,-0.013 -0.01292,-0.017 -0.0054,-0 -0.01198,-0.01 -0.01901,-0.01 -0.01209,-0 -0.02481,-7e-4 -0.03713,0 -0.0062,0 -0.01236,0 -0.0186,0 -0.0062,0 -0.01254,-8e-4 -0.01834,-0 -0.0063,-0 -0.01192,-0.01 -0.01627,-0.012 -0.0043,-0.01 -0.0075,-0.011 -0.0094,-0.018 -0.0038,-0.013 -0.0029,-0.027 3.66e-4,-0.04 0.0065,-0.026 0.02161,-0.051 0.02528,-0.078 0.0039,-0.028 -0.0056,-0.057 -0.02056,-0.082 -0.01498,-0.024 -0.03524,-0.045 -0.05522,-0.066 -0.01998,-0.021 -0.04004,-0.042 -0.05448,-0.066 -0.01445,-0.025 -0.02296,-0.054 -0.01788,-0.082 0.005,-0.028 0.02224,-0.052 0.02932,-0.079 0.0035,-0.014 0.0044,-0.028 -2.22e-4,-0.041 -0.0023,-0.01 -0.006,-0.013 -0.01098,-0.018 -0.005,-0 -0.01128,-0.01 -0.01812,-0.01 -0.0062,-0 -0.01265,-0 -0.01892,0 -0.0063,10e-4 -0.01239,0 -0.01858,0 -0.0062,0 -0.01253,0 -0.01886,0 -0.0063,-3e-4 -0.01272,-0 -0.01771,-0.01 -0.0052,-0 -0.0086,-0.01 -0.01011,-0.016 -0.0015,-0.01 -0.0014,-0.013 -2.62e-4,-0.02 0.0022,-0.013 0.0079,-0.025 0.01037,-0.038 0.0044,-0.023 -0.0016,-0.046 -0.01279,-0.067 -0.01122,-0.02 -0.02741,-0.037 -0.04449,-0.053 -0.01709,-0.016 -0.03526,-0.03 -0.05161,-0.046 -0.01634,-0.016 -0.03098,-0.035 -0.03926,-0.056 -0.0067,-0.017 -0.009,-0.036 -0.0093,-0.055 -2.52e-4,-0.019 0.0015,-0.037 0.0033,-0.056 0.0037,-0.037 0.0059,-0.074 0.0059,-0.1116 0,-0.074 0,-0.1481 0,-0.2222 0,-0.049 0,-0.099 0,-0.1482 0,-0.012 6.85e-4,-0.025 0.0018,-0.037 0.0011,-0.012 0.0023,-0.025 -0.0018,-0.037 -0.0029,-0.01 -0.0084,-0.016 -0.01486,-0.022 -0.0064,-0.01 -0.01385,-0.011 -0.02126,-0.016 -0.0074,-0 -0.01491,-0.01 -0.02163,-0.015 -0.0067,-0.01 -0.01268,-0.013 -0.01632,-0.021 -0.0051,-0.011 -0.0053,-0.024 -0.0041,-0.037 0.0013,-0.012 0.0039,-0.025 0.0041,-0.037 3.46e-4,-0.023 -0.0075,-0.045 -0.01924,-0.065 -0.01176,-0.019 -0.02731,-0.036 -0.04352,-0.052 -0.01621,-0.016 -0.03319,-0.031 -0.04843,-0.048 -0.01524,-0.017 -0.02881,-0.036 -0.03696,-0.057 -0.01146,-0.03 -0.01159,-0.063 -0.0065,-0.095 0.0051,-0.032 0.01518,-0.062 0.02379,-0.093 0.0086,-0.031 0.01583,-0.062 0.01493,-0.094 -8.94e-4,-0.032 -0.01061,-0.065 -0.03222,-0.088 -0.01192,-0.013 -0.02689,-0.023 -0.04072,-0.034 -0.01384,-0.011 -0.02704,-0.024 -0.03335,-0.04 -0.0045,-0.012 -0.0052,-0.025 -0.004,-0.037 0.0012,-0.012 0.0043,-0.025 0.0071,-0.037 0.0028,-0.012 0.0053,-0.025 0.0055,-0.037 1.59e-4,-0.013 -0.0022,-0.025 -0.0086,-0.036 -0.0045,-0.01 -0.01092,-0.014 -0.01786,-0.02 -0.0069,-0.01 -0.01446,-0.01 -0.0218,-0.015 -0.0073,-0.01 -0.01457,-0.01 -0.02073,-0.017 -0.0062,-0.01 -0.01126,-0.014 -0.01368,-0.023 -0.0034,-0.012 -0.0013,-0.025 5.75e-4,-0.037 0.0019,-0.012 0.0036,-0.025 -5.75e-4,-0.037 -0.0027,-0.01 -0.0078,-0.014 -0.01434,-0.019 -0.0066,-0 -0.01463,-0.01 -0.02269,-0.01 -0.0081,0 -0.01611,0 -0.02269,0.01 -0.0066,0 -0.01167,0.011 -0.01434,0.019 -0.04091,-0.039 -0.06761,-0.092 -0.07407,-0.1481 -0.0057,-0.049 0,-0.099 0,-0.1482 0,-0.1481 0,-0.2963 0,-0.4444 0,-0.025 0,-0.049 0,-0.074 0,-0.013 0.0015,-0.025 0.004,-0.038 0.0012,-0.01 0.0024,-0.012 0.0022,-0.019 -1.95e-4,-0.01 -0.0019,-0.013 -0.0062,-0.017 -0.0043,-0 -0.01087,-0.01 -0.01731,-0.01 -0.0064,-4e-4 -0.01285,0 -0.01904,0 -0.0062,0 -0.01228,0 -0.01861,0.01 -0.0063,0 -0.01302,0 -0.01911,-6e-4 -0.0065,-0 -0.01193,-0.01 -0.01545,-0.013 -0.0035,-0.01 -0.0052,-0.013 -0.0053,-0.02 -2.74e-4,-0.014 0.0053,-0.027 0.01151,-0.039 0.0062,-0.012 0.01331,-0.024 0.01651,-0.038 0.0016,-0.01 0.0022,-0.014 0.0011,-0.02 -0.0011,-0.01 -0.0038,-0.013 -0.0084,-0.018 -0.0044,-0.01 -0.01043,-0.01 -0.01684,-0.01 -0.0064,-0 -0.0132,-0 -0.01981,-0 -0.01324,0 -0.02557,0.01 -0.03769,0.013 -0.01212,0.01 -0.02459,0.011 -0.03787,0.012 -0.0066,5e-4 -0.01343,0 -0.01973,-0 -0.0063,-0 -0.01211,-0.01 -0.0162,-0.011 -0.0039,-0.01 -0.0062,-0.011 -0.0071,-0.017 -9.15e-4,-0.01 -5.49e-4,-0.013 3.85e-4,-0.019 0.0019,-0.013 0.006,-0.025 0.0067,-0.038 0.0011,-0.02 -0.0066,-0.04 -0.02049,-0.054 -0.01393,-0.014 -0.03392,-0.022 -0.05358,-0.02"
       style="fill:none;stroke:#000000;stroke-width:1px;stroke-linecap:butt;stroke-linejoin:miter;stroke-opacity:1" />
  </g>
</svg>
